<svg width="478" height="200" viewBox="0 0 478 200" fill="none" xmlns="http://www.w3.org/2000/svg">
<g clip-path="url(#clip0_1631_228)">
<path d="M41.3969 145C40.2969 145 39.3969 144.65 38.6969 143.95C38.0969 143.25 37.7469 142.35 37.6469 141.25L28.6469 96.1C27.7469 91.8 26.7469 88.25 25.6469 85.45C24.5469 82.65 23.0469 80.55 21.1469 79.15C19.2469 77.75 16.5969 77.05 13.1969 77.05H7.94688C6.84688 77.05 5.94688 76.7 5.24688 76C4.54688 75.3 4.19688 74.4 4.19688 73.3V62.2C4.19688 61.2 4.54688 60.35 5.24688 59.65C5.94688 58.95 6.84688 58.6 7.94688 58.6H13.6469C21.5469 58.6 27.8969 59.9 32.6969 62.5C37.5969 65 41.4469 68.95 44.2469 74.35C47.0469 79.75 49.2969 86.7 50.9969 95.2L59.9969 141.25C60.1969 142.35 59.8969 143.25 59.0969 143.95C58.2969 144.65 57.3969 145 56.3969 145H41.3969ZM25.1969 137.5C21.2969 139.9 17.6969 141.8 14.3969 143.2C11.0969 144.5 7.69688 145.5 4.19688 146.2C3.19688 146.3 2.34688 146.2 1.64688 145.9C0.946875 145.6 0.596875 144.95 0.596875 143.95V130.45C0.596875 128.75 1.64688 127.5 3.74688 126.7C4.44688 126.4 5.74688 125.95 7.64688 125.35C9.64688 124.75 11.7969 124.05 14.0969 123.25C16.3969 122.45 18.3469 121.65 19.9469 120.85C22.2469 119.55 24.4469 117.9 26.5469 115.9C28.7469 113.8 30.5969 111.55 32.0969 109.15C33.6969 106.75 34.7469 104.45 35.2469 102.25L43.9469 102.1C43.5469 107.7 42.5469 112.8 40.9469 117.4C39.3469 121.9 37.1969 125.85 34.4969 129.25C31.7969 132.65 28.6969 135.4 25.1969 137.5ZM68.0453 145C67.0453 145 66.1953 144.65 65.4953 143.95C64.7953 143.25 64.4453 142.35 64.4453 141.25V131.05C64.4453 129.95 64.7953 129.05 65.4953 128.35C66.1953 127.65 67.0453 127.3 68.0453 127.3H114.695V141.7C114.695 142.7 114.345 143.5 113.645 144.1C112.945 144.7 112.095 145 111.095 145H68.0453ZM98.7953 145C97.6953 145 96.7953 144.65 96.0953 143.95C95.4953 143.25 95.1453 142.35 95.0453 141.25L92.7953 95.05C92.5953 91.05 92.1453 87.65 91.4453 84.85C90.8453 82.05 89.6453 79.9 87.8453 78.4C86.1453 76.9 83.4953 76.15 79.8953 76.15H72.6953C71.6953 76.15 70.8453 75.8 70.1453 75.1C69.4453 74.4 69.0953 73.5 69.0953 72.4V62.2C69.0953 61.2 69.4453 60.35 70.1453 59.65C70.8453 58.95 71.6953 58.6 72.6953 58.6H80.3453C86.6453 58.6 91.9453 59.35 96.2453 60.85C100.645 62.35 104.145 64.65 106.745 67.75C109.445 70.85 111.445 74.7 112.745 79.3C114.045 83.8 114.845 89.1 115.145 95.2L117.395 141.25C117.495 142.35 117.145 143.25 116.345 143.95C115.645 144.65 114.795 145 113.795 145H98.7953ZM129.941 109.75C128.841 109.75 127.941 109.4 127.241 108.7C126.541 108 126.191 107.1 126.191 106V63.1C126.191 62 126.541 61.1 127.241 60.4C127.941 59.7 128.841 59.35 129.941 59.35H144.941C145.941 59.35 146.791 59.7 147.491 60.4C148.191 61.1 148.541 62 148.541 63.1V106C148.541 107.1 148.191 108 147.491 108.7C146.791 109.4 145.941 109.75 144.941 109.75H129.941ZM180.875 146.8C179.875 147 178.975 146.7 178.175 145.9C177.375 145.1 176.975 144.2 176.975 143.2V130.6C176.975 129.7 177.275 128.85 177.875 128.05C178.575 127.15 179.475 126.5 180.575 126.1L185.675 124C188.775 122.7 191.575 121.05 194.075 119.05C196.675 117.05 198.725 114.35 200.225 110.95C201.825 107.55 202.625 103.15 202.625 97.75C202.625 92.95 202.025 89.1 200.825 86.2C199.725 83.2 197.825 81.05 195.125 79.75C192.425 78.45 188.675 77.8 183.875 77.8H180.125C179.125 77.8 178.225 77.45 177.425 76.75C176.725 76.05 176.375 75.2 176.375 74.2V62.95C176.375 61.95 176.725 61.1 177.425 60.4C178.225 59.7 179.125 59.35 180.125 59.35H188.075C197.075 59.35 204.225 60.75 209.525 63.55C214.925 66.35 218.825 70.6 221.225 76.3C223.625 81.9 224.825 88.95 224.825 97.45C224.825 104.25 223.775 110.3 221.675 115.6C219.575 120.9 216.725 125.5 213.125 129.4C209.525 133.2 205.475 136.4 200.975 139C196.575 141.5 191.925 143.45 187.025 144.85L180.875 146.8ZM184.925 77.8H161.525C160.425 77.8 159.525 77.45 158.825 76.75C158.125 76.05 157.775 75.2 157.775 74.2V42.25C157.775 41.15 158.125 40.25 158.825 39.55C159.525 38.85 160.425 38.5 161.525 38.5H174.575C175.575 38.5 176.425 38.85 177.125 39.55C177.825 40.25 178.175 41.15 178.175 42.25V59.35H185.075L184.925 77.8ZM238.809 173.65C237.709 173.65 236.809 173.3 236.109 172.6C235.409 171.9 235.059 171 235.059 169.9V95.5C235.059 94.5 235.409 93.65 236.109 92.95C236.809 92.15 237.709 91.75 238.809 91.75H252.459C253.559 91.75 254.459 92.15 255.159 92.95C255.859 93.65 256.209 94.5 256.209 95.5V169.9C256.209 171 255.859 171.9 255.159 172.6C254.459 173.3 253.559 173.65 252.459 173.65H238.809ZM272.559 146.8C271.659 147 270.759 146.7 269.859 145.9C269.059 145.1 268.659 144.2 268.659 143.2V130.6C268.659 129.7 269.009 128.85 269.709 128.05C270.409 127.15 271.259 126.5 272.259 126.1L277.359 124C280.459 122.7 283.309 121.05 285.909 119.05C288.509 117.05 290.559 114.35 292.059 110.95C293.559 107.55 294.309 103.15 294.309 97.75C294.309 92.95 293.709 89.1 292.509 86.2C291.409 83.2 289.509 81.05 286.809 79.75C284.109 78.45 280.409 77.8 275.709 77.8H238.809C237.809 77.8 236.909 77.45 236.109 76.75C235.409 76.05 235.059 75.2 235.059 74.2V62.95C235.059 61.95 235.409 61.1 236.109 60.4C236.909 59.7 237.809 59.35 238.809 59.35H279.909C288.909 59.35 296.059 60.75 301.359 63.55C306.759 66.35 310.609 70.6 312.909 76.3C315.309 81.9 316.509 88.95 316.509 97.45C316.509 104.25 315.459 110.3 313.359 115.6C311.359 120.9 308.559 125.5 304.959 129.4C301.359 133.2 297.309 136.4 292.809 139C288.309 141.5 283.609 143.45 278.709 144.85L272.559 146.8Z" fill="#2A2A2A"/>
<path d="M353.17 35.778C350.929 36.7662 349.092 38.8773 348.465 41.1232C347.838 43.4139 347.838 85.3215 348.51 87.6123C349.092 89.7234 351.333 92.3735 353.259 93.1371C354.38 93.6311 358.636 93.7659 372.751 93.7659C385.969 93.7659 391.839 93.9456 394.617 94.3947C406.177 96.2813 414.108 103.288 417.11 114.293C418.006 117.572 418.096 119.144 418.32 138.234C418.499 153.011 418.723 158.94 419.127 159.614C420.068 161.231 422.756 163.297 424.503 163.792C427.057 164.51 468.549 164.465 470.924 163.747C473.433 162.983 475.943 160.468 476.57 158.132C476.928 156.784 477.063 149.463 476.973 133.607L476.839 111.014L475.584 109.128C473.209 105.489 473.613 105.534 450.805 105.354C431.538 105.175 430.552 105.085 427.326 104.142C416.707 100.953 410.613 94.6193 407.79 83.7943C407.163 81.4586 406.984 77.5059 406.76 60.7519C406.491 40.674 406.491 40.5392 405.46 38.8773C404.878 37.979 403.668 36.7662 402.772 36.1823L401.114 35.1492L378.038 35.0594C356.396 34.9246 354.873 34.9695 353.17 35.778Z" fill="#003BFF"/>
<path d="M441.886 35.5533C435.209 37.1254 430.37 39.8654 426.113 44.5816C409.445 62.8629 421.364 92.4183 445.918 93.631C454.925 94.0802 462.094 91.2953 468.322 85.0519C472.176 81.1441 474.147 77.955 475.626 73.059C480.286 57.7872 471.952 41.5273 456.896 36.5415C452.326 35.0592 445.918 34.6101 441.886 35.5533Z" fill="#003BFF"/>
<path d="M371.989 105.76C369.256 106.344 364.058 108.455 361.639 109.982C358.278 112.138 354.066 116.54 352.095 119.954C345.463 131.542 347.435 146.05 356.844 155.438C362.58 161.143 369.122 163.882 377.142 163.972C385.656 164.062 391.973 161.502 397.978 155.528C403.668 149.868 406.177 144.299 406.581 136.393C407.074 127.365 404.34 120.178 398.202 113.98C392.377 108.14 385.566 105.401 377.187 105.49C374.812 105.535 372.482 105.625 371.989 105.76Z" fill="#003BFF"/>
</g>
<defs>
<clipPath id="clip0_1631_228">
<rect width="478" height="200" fill="white"/>
</clipPath>
</defs>
</svg>
