<svg width="478" height="200" viewBox="0 0 478 200" fill="none" xmlns="http://www.w3.org/2000/svg">
<g clip-path="url(#clip0_1640_206)">
<path d="M150.219 121C149.119 121 148.219 120.65 147.519 119.95C146.819 119.25 146.469 118.35 146.469 117.25V19.75C146.469 18.65 146.819 17.75 147.519 17.05C148.219 16.35 149.119 16 150.219 16H166.119C167.219 16 168.119 16.35 168.819 17.05C169.519 17.75 169.869 18.65 169.869 19.75V53.95L200.769 18.85C201.169 18.25 201.819 17.65 202.719 17.05C203.719 16.35 205.019 16 206.619 16H224.769C225.669 16 226.419 16.35 227.019 17.05C227.619 17.65 227.919 18.35 227.919 19.15C227.919 19.85 227.719 20.45 227.319 20.95L188.769 66.25L230.169 116.05C230.569 116.45 230.769 117.05 230.769 117.85C230.769 118.65 230.469 119.4 229.869 120.1C229.269 120.7 228.519 121 227.619 121H208.869C207.069 121 205.719 120.6 204.819 119.8C203.919 119 203.319 118.45 203.019 118.15L169.869 79.75V117.25C169.869 118.35 169.519 119.25 168.819 119.95C168.119 120.65 167.219 121 166.119 121H150.219ZM239.688 121C238.588 121 237.688 120.65 236.988 119.95C236.288 119.25 235.938 118.35 235.938 117.25V18.25C235.938 17.15 236.288 16.25 236.988 15.55C237.688 14.85 238.588 14.5 239.688 14.5H254.688C255.688 14.5 256.538 14.85 257.238 15.55C257.938 16.25 258.288 17.15 258.288 18.25V117.25C258.288 118.35 257.938 119.25 257.238 119.95C256.538 120.65 255.688 121 254.688 121H239.688ZM274.847 121C273.847 121 272.997 120.65 272.297 119.95C271.597 119.25 271.247 118.35 271.247 117.25V46.75C271.247 45.65 271.597 44.75 272.297 44.05C272.997 43.35 273.847 43 274.847 43H289.847C290.947 43 291.847 43.35 292.547 44.05C293.247 44.75 293.597 45.65 293.597 46.75V117.25C293.597 118.35 293.247 119.25 292.547 119.95C291.847 120.65 290.947 121 289.847 121H274.847ZM274.397 31C273.397 31 272.547 30.65 271.847 29.95C271.147 29.25 270.797 28.35 270.797 27.25V15.25C270.797 14.15 271.147 13.25 271.847 12.55C272.547 11.75 273.397 11.35 274.397 11.35H290.147C291.247 11.35 292.147 11.75 292.847 12.55C293.647 13.25 294.047 14.15 294.047 15.25V27.25C294.047 28.35 293.647 29.25 292.847 29.95C292.147 30.65 291.247 31 290.147 31H274.397ZM310.009 121C309.009 121 308.159 120.65 307.459 119.95C306.759 119.25 306.409 118.35 306.409 117.25V46.75C306.409 45.65 306.759 44.75 307.459 44.05C308.159 43.35 309.009 43 310.009 43H324.709C325.809 43 326.709 43.35 327.409 44.05C328.109 44.75 328.459 45.65 328.459 46.75V52.6C331.059 49.4 334.409 46.75 338.509 44.65C342.609 42.55 347.609 41.5 353.509 41.5C359.409 41.5 364.559 42.85 368.959 45.55C373.459 48.15 376.959 52 379.459 57.1C382.059 62.1 383.359 68.2 383.359 75.4V117.25C383.359 118.35 382.959 119.25 382.159 119.95C381.459 120.65 380.609 121 379.609 121H363.709C362.609 121 361.709 120.65 361.009 119.95C360.309 119.25 359.959 118.35 359.959 117.25V76.3C359.959 71 358.659 66.9 356.059 64C353.559 61 349.859 59.5 344.959 59.5C340.259 59.5 336.509 61 333.709 64C330.909 66.9 329.509 71 329.509 76.3V117.25C329.509 118.35 329.159 119.25 328.459 119.95C327.759 120.65 326.909 121 325.909 121H310.009ZM431.931 154C424.531 154 418.381 153 413.481 151C408.581 149.1 404.681 146.75 401.781 143.95C398.981 141.25 396.981 138.55 395.781 135.85C394.581 133.15 393.931 131.05 393.831 129.55C393.731 128.45 394.081 127.55 394.881 126.85C395.681 126.15 396.581 125.8 397.581 125.8H413.631C414.531 125.8 415.281 126 415.881 126.4C416.581 126.9 417.131 127.7 417.531 128.8C418.031 130 418.731 131.25 419.631 132.55C420.531 133.95 421.881 135.1 423.681 136C425.581 136.9 428.081 137.35 431.181 137.35C434.681 137.35 437.581 136.85 439.881 135.85C442.181 134.85 443.881 133.15 444.981 130.75C446.181 128.35 446.781 125.1 446.781 121V110.95C444.381 113.55 441.331 115.7 437.631 117.4C434.031 119.1 429.581 119.95 424.281 119.95C419.081 119.95 414.481 119.15 410.481 117.55C406.581 115.85 403.331 113.5 400.731 110.5C398.131 107.4 396.131 103.7 394.731 99.4C393.331 95.1 392.531 90.25 392.331 84.85C392.231 82.15 392.231 79.5 392.331 76.9C392.531 71.7 393.331 66.95 394.731 62.65C396.131 58.35 398.131 54.65 400.731 51.55C403.331 48.35 406.581 45.9 410.481 44.2C414.481 42.4 419.081 41.5 424.281 41.5C429.781 41.5 434.481 42.55 438.381 44.65C442.281 46.75 445.481 49.35 447.981 52.45V46.75C447.981 45.75 448.331 44.9 449.031 44.2C449.731 43.4 450.581 43 451.581 43H466.281C467.281 43 468.131 43.4 468.831 44.2C469.631 44.9 470.031 45.75 470.031 46.75L470.181 118.9C470.181 126.4 468.731 132.75 465.831 137.95C462.931 143.15 458.631 147.1 452.931 149.8C447.331 152.6 440.331 154 431.931 154ZM431.181 102.4C434.781 102.4 437.681 101.6 439.881 100C442.181 98.3 443.881 96.2 444.981 93.7C446.081 91.1 446.681 88.4 446.781 85.6C446.881 84.5 446.931 82.95 446.931 80.95C446.931 78.85 446.881 77.25 446.781 76.15C446.681 73.35 446.081 70.7 444.981 68.2C443.881 65.6 442.181 63.5 439.881 61.9C437.681 60.3 434.781 59.5 431.181 59.5C427.381 59.5 424.381 60.35 422.181 62.05C419.981 63.65 418.381 65.8 417.381 68.5C416.381 71.2 415.781 74.15 415.581 77.35C415.481 79.75 415.481 82.1 415.581 84.4C415.781 87.7 416.381 90.7 417.381 93.4C418.381 96.1 419.981 98.3 422.181 100C424.381 101.6 427.381 102.4 431.181 102.4Z" fill="#2A2A2A"/>
<path d="M6.16982 11.778C3.92944 12.7662 2.09233 14.8773 1.46502 17.1232C0.837717 19.4139 0.837717 61.3215 1.50983 63.6123C2.09233 65.7234 4.33271 68.3735 6.25943 69.1371C7.37962 69.6311 11.6363 69.7659 25.7507 69.7659C38.969 69.7659 44.8387 69.9456 47.6168 70.3947C59.1772 72.2812 67.1081 79.2883 70.1102 90.293C71.0064 93.5719 71.096 95.144 71.32 114.234C71.4992 129.011 71.7233 134.94 72.1265 135.614C73.0675 137.231 75.756 139.297 77.5035 139.792C80.0575 140.51 121.549 140.465 123.924 139.747C126.433 138.983 128.943 136.468 129.57 134.132C129.928 132.784 130.063 125.463 129.973 109.607L129.839 87.014L128.584 85.1275C126.209 81.4892 126.613 81.5342 103.805 81.3545C84.5382 81.1748 83.5525 81.085 80.3263 80.1417C69.7069 76.9526 63.6131 70.6193 60.7902 59.7943C60.1629 57.4586 59.9837 53.5059 59.7597 36.7519C59.4908 16.674 59.4908 16.5392 58.4602 14.8773C57.8777 13.979 56.6679 12.7662 55.7718 12.1823L54.1139 11.1492L31.038 11.0594C9.39596 10.9246 7.87251 10.9695 6.16982 11.778Z" fill="#003BFF"/>
<path d="M94.8857 11.5533C88.2094 13.1254 83.3702 15.8654 79.1135 20.5816C62.4451 38.8629 74.3639 68.4183 98.9184 69.631C107.925 70.0802 115.094 67.2953 121.322 61.0519C125.176 57.1441 127.147 53.955 128.626 49.059C133.286 33.7872 124.952 17.5273 109.896 12.5415C105.326 11.0592 98.9184 10.6101 94.8857 11.5533Z" fill="#003BFF"/>
<path d="M24.9893 81.7599C22.256 82.3438 17.0583 84.4549 14.6387 85.9821C11.2782 88.1381 7.06624 92.54 5.09471 95.9537C-1.53681 107.542 0.434721 122.05 9.84431 131.438C15.5797 137.143 22.1216 139.882 30.1421 139.972C38.6556 140.062 44.9734 137.502 50.9777 131.528C56.6682 125.868 59.1774 120.299 59.5807 112.393C60.0736 103.365 57.3403 96.1782 51.2017 89.9797C45.3767 84.1405 38.566 81.4005 30.1869 81.4904C27.8121 81.5353 25.4821 81.6251 24.9893 81.7599Z" fill="#003BFF"/>
<path d="M7.93528 180C7.69528 180 7.49128 179.928 7.32328 179.784C7.15528 179.616 7.07128 179.4 7.07128 179.136V155.7C7.07128 155.436 7.15528 155.22 7.32328 155.052C7.49128 154.884 7.69528 154.8 7.93528 154.8H11.2113C11.4753 154.8 11.6793 154.884 11.8233 155.052C11.9913 155.22 12.0753 155.436 12.0753 155.7V164.988H22.6953V155.7C22.6953 155.436 22.7793 155.22 22.9473 155.052C23.1153 154.884 23.3193 154.8 23.5593 154.8H26.7993C27.0633 154.8 27.2793 154.884 27.4473 155.052C27.6153 155.22 27.6993 155.436 27.6993 155.7V179.136C27.6993 179.376 27.6153 179.58 27.4473 179.748C27.2793 179.916 27.0633 180 26.7993 180H23.5593C23.3193 180 23.1153 179.916 22.9473 179.748C22.7793 179.58 22.6953 179.376 22.6953 179.136V169.488H12.0753V179.136C12.0753 179.376 11.9913 179.58 11.8233 179.748C11.6793 179.916 11.4753 180 11.2113 180H7.93528ZM39.1298 180.36C36.4658 180.36 34.3538 179.592 32.7938 178.056C31.2338 176.52 30.3938 174.336 30.2738 171.504C30.2498 171.264 30.2378 170.964 30.2378 170.604C30.2378 170.22 30.2498 169.92 30.2738 169.704C30.3698 167.904 30.7778 166.344 31.4978 165.024C32.2418 163.704 33.2618 162.696 34.5578 162C35.8538 161.28 37.3778 160.92 39.1298 160.92C41.0738 160.92 42.7058 161.328 44.0258 162.144C45.3458 162.936 46.3418 164.052 47.0138 165.492C47.6858 166.908 48.0218 168.552 48.0218 170.424V171.18C48.0218 171.42 47.9378 171.624 47.7698 171.792C47.6018 171.96 47.3858 172.044 47.1218 172.044H35.1698C35.1698 172.044 35.1698 172.08 35.1698 172.152C35.1698 172.224 35.1698 172.284 35.1698 172.332C35.1938 173.172 35.3498 173.952 35.6378 174.672C35.9498 175.368 36.3938 175.932 36.9698 176.364C37.5698 176.796 38.2778 177.012 39.0938 177.012C39.7658 177.012 40.3298 176.916 40.7858 176.724C41.2418 176.508 41.6138 176.268 41.9018 176.004C42.1898 175.74 42.3938 175.524 42.5138 175.356C42.7298 175.068 42.8978 174.9 43.0178 174.852C43.1618 174.78 43.3658 174.744 43.6298 174.744H46.7258C46.9658 174.744 47.1578 174.816 47.3018 174.96C47.4698 175.104 47.5418 175.284 47.5178 175.5C47.4938 175.884 47.2898 176.352 46.9058 176.904C46.5458 177.456 46.0178 177.996 45.3218 178.524C44.6258 179.052 43.7498 179.496 42.6938 179.856C41.6618 180.192 40.4738 180.36 39.1298 180.36ZM35.1698 169.02H43.1258V168.912C43.1258 167.976 42.9698 167.16 42.6578 166.464C42.3458 165.768 41.8898 165.216 41.2898 164.808C40.6898 164.4 39.9698 164.196 39.1298 164.196C38.2898 164.196 37.5698 164.4 36.9698 164.808C36.3698 165.216 35.9138 165.768 35.6018 166.464C35.3138 167.16 35.1698 167.976 35.1698 168.912V169.02ZM60.4112 180.36C59.0192 180.36 57.8552 180.12 56.9192 179.64C56.0072 179.16 55.2512 178.548 54.6512 177.804V179.136C54.6512 179.376 54.5672 179.58 54.3992 179.748C54.2552 179.916 54.0512 180 53.7872 180H50.9432C50.7032 180 50.4992 179.916 50.3312 179.748C50.1632 179.58 50.0792 179.376 50.0792 179.136V155.304C50.0792 155.064 50.1632 154.86 50.3312 154.692C50.4992 154.524 50.7032 154.44 50.9432 154.44H54.0032C54.2672 154.44 54.4712 154.524 54.6152 154.692C54.7832 154.86 54.8672 155.064 54.8672 155.304V163.296C55.4672 162.6 56.2112 162.036 57.0992 161.604C58.0112 161.148 59.1152 160.92 60.4112 160.92C61.6832 160.92 62.7872 161.136 63.7232 161.568C64.6592 162 65.4392 162.612 66.0632 163.404C66.7112 164.172 67.2032 165.072 67.5392 166.104C67.8752 167.136 68.0552 168.252 68.0792 169.452C68.1032 169.884 68.1152 170.28 68.1152 170.64C68.1152 170.976 68.1032 171.36 68.0792 171.792C68.0312 173.04 67.8392 174.192 67.5032 175.248C67.1672 176.28 66.6872 177.18 66.0632 177.948C65.4392 178.716 64.6592 179.316 63.7232 179.748C62.7872 180.156 61.6832 180.36 60.4112 180.36ZM59.0792 176.508C60.1112 176.508 60.9152 176.292 61.4912 175.86C62.0672 175.404 62.4752 174.816 62.7152 174.096C62.9792 173.376 63.1352 172.584 63.1832 171.72C63.2312 171 63.2312 170.28 63.1832 169.56C63.1352 168.696 62.9792 167.904 62.7152 167.184C62.4752 166.464 62.0672 165.888 61.4912 165.456C60.9152 165 60.1112 164.772 59.0792 164.772C58.1192 164.772 57.3392 164.988 56.7392 165.42C56.1392 165.852 55.6832 166.404 55.3712 167.076C55.0592 167.724 54.8912 168.408 54.8672 169.128C54.8432 169.56 54.8312 170.028 54.8312 170.532C54.8312 171.012 54.8432 171.468 54.8672 171.9C54.9152 172.644 55.0712 173.376 55.3352 174.096C55.6232 174.792 56.0672 175.368 56.6672 175.824C57.2912 176.28 58.0952 176.508 59.0792 176.508ZM71.1853 180C70.9453 180 70.7413 179.916 70.5733 179.748C70.4053 179.58 70.3213 179.376 70.3213 179.136V162.18C70.3213 161.916 70.4053 161.7 70.5733 161.532C70.7413 161.364 70.9453 161.28 71.1853 161.28H74.1013C74.3413 161.28 74.5453 161.364 74.7133 161.532C74.9053 161.7 75.0013 161.916 75.0013 162.18V163.656C75.5533 162.888 76.2613 162.3 77.1253 161.892C78.0133 161.484 79.0333 161.28 80.1853 161.28H81.6613C81.9253 161.28 82.1293 161.364 82.2733 161.532C82.4413 161.7 82.5253 161.904 82.5253 162.144V164.736C82.5253 164.976 82.4413 165.18 82.2733 165.348C82.1293 165.516 81.9253 165.6 81.6613 165.6H78.8533C77.7013 165.6 76.8013 165.924 76.1533 166.572C75.5293 167.22 75.2173 168.108 75.2173 169.236V179.136C75.2173 179.376 75.1333 179.58 74.9653 179.748C74.7973 179.916 74.5813 180 74.3173 180H71.1853ZM91.3509 180.36C88.6869 180.36 86.5749 179.592 85.0149 178.056C83.4549 176.52 82.6149 174.336 82.4949 171.504C82.4709 171.264 82.4589 170.964 82.4589 170.604C82.4589 170.22 82.4709 169.92 82.4949 169.704C82.5909 167.904 82.9989 166.344 83.7189 165.024C84.4629 163.704 85.4829 162.696 86.7789 162C88.0749 161.28 89.5989 160.92 91.3509 160.92C93.2949 160.92 94.9269 161.328 96.2469 162.144C97.5669 162.936 98.5629 164.052 99.2349 165.492C99.9069 166.908 100.243 168.552 100.243 170.424V171.18C100.243 171.42 100.159 171.624 99.9909 171.792C99.8229 171.96 99.6069 172.044 99.3429 172.044H87.3909C87.3909 172.044 87.3909 172.08 87.3909 172.152C87.3909 172.224 87.3909 172.284 87.3909 172.332C87.4149 173.172 87.5709 173.952 87.8589 174.672C88.1709 175.368 88.6149 175.932 89.1909 176.364C89.7909 176.796 90.4989 177.012 91.3149 177.012C91.9869 177.012 92.5509 176.916 93.0069 176.724C93.4629 176.508 93.8349 176.268 94.1229 176.004C94.4109 175.74 94.6149 175.524 94.7349 175.356C94.9509 175.068 95.1189 174.9 95.2389 174.852C95.3829 174.78 95.5869 174.744 95.8509 174.744H98.9469C99.1869 174.744 99.3789 174.816 99.5229 174.96C99.6909 175.104 99.7629 175.284 99.7389 175.5C99.7149 175.884 99.5109 176.352 99.1269 176.904C98.7669 177.456 98.2389 177.996 97.5429 178.524C96.8469 179.052 95.9709 179.496 94.9149 179.856C93.8829 180.192 92.6949 180.36 91.3509 180.36ZM87.3909 169.02H95.3469V168.912C95.3469 167.976 95.1909 167.16 94.8789 166.464C94.5669 165.768 94.1109 165.216 93.5109 164.808C92.9109 164.4 92.1909 164.196 91.3509 164.196C90.5109 164.196 89.7909 164.4 89.1909 164.808C88.5909 165.216 88.1349 165.768 87.8229 166.464C87.5349 167.16 87.3909 167.976 87.3909 168.912V169.02ZM106.849 180C106.513 180 106.261 179.916 106.093 179.748C105.925 179.58 105.781 179.364 105.661 179.1L100.513 162.396C100.489 162.276 100.477 162.168 100.477 162.072C100.477 161.856 100.549 161.676 100.693 161.532C100.861 161.364 101.041 161.28 101.233 161.28H103.897C104.185 161.28 104.413 161.364 104.581 161.532C104.749 161.676 104.845 161.82 104.869 161.964L108.397 173.88L112.141 162.072C112.189 161.904 112.297 161.736 112.465 161.568C112.633 161.376 112.885 161.28 113.221 161.28H115.021C115.357 161.28 115.609 161.376 115.777 161.568C115.945 161.736 116.053 161.904 116.101 162.072L119.845 173.88L123.373 161.964C123.397 161.82 123.481 161.676 123.625 161.532C123.793 161.364 124.021 161.28 124.309 161.28H126.973C127.189 161.28 127.369 161.364 127.513 161.532C127.681 161.676 127.765 161.856 127.765 162.072C127.765 162.168 127.741 162.276 127.693 162.396L122.545 179.1C122.473 179.364 122.341 179.58 122.149 179.748C121.981 179.916 121.729 180 121.393 180H119.053C118.717 180 118.453 179.916 118.261 179.748C118.069 179.58 117.937 179.364 117.865 179.1L114.121 167.724L110.377 179.1C110.281 179.364 110.137 179.58 109.945 179.748C109.777 179.916 109.513 180 109.153 180H106.849ZM149.613 180.36C147.885 180.36 146.361 180.036 145.041 179.388C143.745 178.74 142.725 177.804 141.981 176.58C141.261 175.332 140.865 173.832 140.793 172.08C140.769 171.72 140.757 171.252 140.757 170.676C140.757 170.076 140.769 169.584 140.793 169.2C140.865 167.448 141.261 165.96 141.981 164.736C142.725 163.488 143.745 162.54 145.041 161.892C146.361 161.244 147.885 160.92 149.613 160.92C151.149 160.92 152.457 161.136 153.537 161.568C154.617 162 155.505 162.54 156.201 163.188C156.897 163.836 157.413 164.52 157.749 165.24C158.109 165.936 158.301 166.572 158.325 167.148C158.349 167.412 158.265 167.628 158.073 167.796C157.905 167.94 157.701 168.012 157.461 168.012H154.293C154.053 168.012 153.861 167.952 153.717 167.832C153.597 167.712 153.477 167.532 153.357 167.292C152.997 166.332 152.517 165.66 151.917 165.276C151.341 164.868 150.597 164.664 149.685 164.664C148.485 164.664 147.525 165.048 146.805 165.816C146.109 166.56 145.737 167.748 145.689 169.38C145.641 170.292 145.641 171.132 145.689 171.9C145.737 173.556 146.109 174.756 146.805 175.5C147.525 176.244 148.485 176.616 149.685 176.616C150.621 176.616 151.377 176.424 151.953 176.04C152.529 175.632 152.997 174.948 153.357 173.988C153.477 173.748 153.597 173.568 153.717 173.448C153.861 173.328 154.053 173.268 154.293 173.268H157.461C157.701 173.268 157.905 173.352 158.073 173.52C158.265 173.664 158.349 173.868 158.325 174.132C158.301 174.564 158.181 175.056 157.965 175.608C157.773 176.136 157.449 176.688 156.993 177.264C156.561 177.816 156.009 178.332 155.337 178.812C154.665 179.268 153.849 179.64 152.889 179.928C151.953 180.216 150.861 180.36 149.613 180.36ZM168.559 180.36C166.639 180.36 165.019 180.024 163.699 179.352C162.403 178.68 161.407 177.732 160.711 176.508C160.039 175.284 159.655 173.856 159.559 172.224C159.535 171.792 159.523 171.264 159.523 170.64C159.523 170.016 159.535 169.488 159.559 169.056C159.655 167.4 160.051 165.972 160.747 164.772C161.467 163.548 162.475 162.6 163.771 161.928C165.091 161.256 166.687 160.92 168.559 160.92C170.431 160.92 172.015 161.256 173.311 161.928C174.631 162.6 175.639 163.548 176.335 164.772C177.055 165.972 177.463 167.4 177.559 169.056C177.583 169.488 177.595 170.016 177.595 170.64C177.595 171.264 177.583 171.792 177.559 172.224C177.463 173.856 177.067 175.284 176.371 176.508C175.699 177.732 174.703 178.68 173.383 179.352C172.087 180.024 170.479 180.36 168.559 180.36ZM168.559 176.796C169.831 176.796 170.815 176.4 171.511 175.608C172.207 174.792 172.591 173.604 172.663 172.044C172.687 171.684 172.699 171.216 172.699 170.64C172.699 170.064 172.687 169.596 172.663 169.236C172.591 167.7 172.207 166.524 171.511 165.708C170.815 164.892 169.831 164.484 168.559 164.484C167.287 164.484 166.303 164.892 165.607 165.708C164.911 166.524 164.527 167.7 164.455 169.236C164.431 169.596 164.419 170.064 164.419 170.64C164.419 171.216 164.431 171.684 164.455 172.044C164.527 173.604 164.911 174.792 165.607 175.608C166.303 176.4 167.287 176.796 168.559 176.796ZM180.648 180C180.408 180 180.204 179.916 180.036 179.748C179.868 179.58 179.784 179.376 179.784 179.136V162.144C179.784 161.904 179.868 161.7 180.036 161.532C180.204 161.364 180.408 161.28 180.648 161.28H183.456C183.696 161.28 183.9 161.364 184.068 161.532C184.236 161.7 184.32 161.904 184.32 162.144V163.368C184.824 162.696 185.496 162.132 186.336 161.676C187.2 161.196 188.22 160.944 189.396 160.92C192.132 160.872 194.04 161.94 195.12 164.124C195.672 163.164 196.464 162.396 197.496 161.82C198.552 161.22 199.716 160.92 200.988 160.92C202.236 160.92 203.364 161.208 204.372 161.784C205.404 162.36 206.208 163.236 206.784 164.412C207.384 165.564 207.684 167.028 207.684 168.804V179.136C207.684 179.376 207.6 179.58 207.432 179.748C207.264 179.916 207.06 180 206.82 180H203.868C203.628 180 203.424 179.916 203.256 179.748C203.088 179.58 203.004 179.376 203.004 179.136V169.092C203.004 168.012 202.848 167.16 202.536 166.536C202.224 165.888 201.804 165.432 201.276 165.168C200.748 164.904 200.16 164.772 199.512 164.772C198.984 164.772 198.456 164.904 197.928 165.168C197.4 165.432 196.968 165.888 196.632 166.536C196.296 167.16 196.128 168.012 196.128 169.092V179.136C196.128 179.376 196.044 179.58 195.876 179.748C195.708 179.916 195.504 180 195.264 180H192.312C192.048 180 191.832 179.916 191.664 179.748C191.52 179.58 191.448 179.376 191.448 179.136V169.092C191.448 168.012 191.28 167.16 190.944 166.536C190.608 165.888 190.176 165.432 189.648 165.168C189.12 164.904 188.556 164.772 187.956 164.772C187.404 164.772 186.864 164.916 186.336 165.204C185.808 165.468 185.376 165.912 185.04 166.536C184.704 167.16 184.536 168.012 184.536 169.092V179.136C184.536 179.376 184.452 179.58 184.284 179.748C184.116 179.916 183.912 180 183.672 180H180.648ZM211.332 180C211.092 180 210.888 179.916 210.72 179.748C210.552 179.58 210.468 179.376 210.468 179.136V162.144C210.468 161.904 210.552 161.7 210.72 161.532C210.888 161.364 211.092 161.28 211.332 161.28H214.14C214.38 161.28 214.584 161.364 214.752 161.532C214.92 161.7 215.004 161.904 215.004 162.144V163.368C215.508 162.696 216.18 162.132 217.02 161.676C217.884 161.196 218.904 160.944 220.08 160.92C222.816 160.872 224.724 161.94 225.804 164.124C226.356 163.164 227.148 162.396 228.18 161.82C229.236 161.22 230.4 160.92 231.672 160.92C232.92 160.92 234.048 161.208 235.056 161.784C236.088 162.36 236.892 163.236 237.468 164.412C238.068 165.564 238.368 167.028 238.368 168.804V179.136C238.368 179.376 238.284 179.58 238.116 179.748C237.948 179.916 237.744 180 237.504 180H234.552C234.312 180 234.108 179.916 233.94 179.748C233.772 179.58 233.688 179.376 233.688 179.136V169.092C233.688 168.012 233.532 167.16 233.22 166.536C232.908 165.888 232.488 165.432 231.96 165.168C231.432 164.904 230.844 164.772 230.196 164.772C229.668 164.772 229.14 164.904 228.612 165.168C228.084 165.432 227.652 165.888 227.316 166.536C226.98 167.16 226.812 168.012 226.812 169.092V179.136C226.812 179.376 226.728 179.58 226.56 179.748C226.392 179.916 226.188 180 225.948 180H222.996C222.732 180 222.516 179.916 222.348 179.748C222.204 179.58 222.132 179.376 222.132 179.136V169.092C222.132 168.012 221.964 167.16 221.628 166.536C221.292 165.888 220.86 165.432 220.332 165.168C219.804 164.904 219.24 164.772 218.64 164.772C218.088 164.772 217.548 164.916 217.02 165.204C216.492 165.468 216.06 165.912 215.724 166.536C215.388 167.16 215.22 168.012 215.22 169.092V179.136C215.22 179.376 215.136 179.58 214.968 179.748C214.8 179.916 214.596 180 214.356 180H211.332ZM248.101 180.36C246.637 180.36 245.365 180.036 244.285 179.388C243.229 178.716 242.413 177.78 241.837 176.58C241.261 175.356 240.973 173.916 240.973 172.26V162.144C240.973 161.904 241.057 161.7 241.225 161.532C241.393 161.364 241.597 161.28 241.837 161.28H245.005C245.269 161.28 245.473 161.364 245.617 161.532C245.785 161.7 245.869 161.904 245.869 162.144V172.044C245.869 175.02 247.177 176.508 249.793 176.508C251.041 176.508 252.025 176.112 252.745 175.32C253.489 174.528 253.861 173.436 253.861 172.044V162.144C253.861 161.904 253.945 161.7 254.113 161.532C254.281 161.364 254.485 161.28 254.725 161.28H257.893C258.133 161.28 258.337 161.364 258.505 161.532C258.673 161.7 258.757 161.904 258.757 162.144V179.136C258.757 179.376 258.673 179.58 258.505 179.748C258.337 179.916 258.133 180 257.893 180H254.977C254.713 180 254.497 179.916 254.329 179.748C254.185 179.58 254.113 179.376 254.113 179.136V177.66C253.465 178.5 252.661 179.16 251.701 179.64C250.741 180.12 249.541 180.36 248.101 180.36ZM262.576 180C262.336 180 262.132 179.916 261.964 179.748C261.796 179.58 261.712 179.376 261.712 179.136V162.144C261.712 161.904 261.796 161.7 261.964 161.532C262.132 161.364 262.336 161.28 262.576 161.28H265.528C265.768 161.28 265.972 161.364 266.14 161.532C266.308 161.7 266.392 161.904 266.392 162.144V163.62C267.016 162.852 267.808 162.216 268.768 161.712C269.752 161.184 270.964 160.92 272.404 160.92C273.868 160.92 275.14 161.256 276.22 161.928C277.3 162.576 278.128 163.5 278.704 164.7C279.304 165.9 279.604 167.34 279.604 169.02V179.136C279.604 179.376 279.52 179.58 279.352 179.748C279.184 179.916 278.98 180 278.74 180H275.572C275.332 180 275.128 179.916 274.96 179.748C274.792 179.58 274.708 179.376 274.708 179.136V169.236C274.708 167.844 274.36 166.752 273.664 165.96C272.992 165.168 272.008 164.772 270.712 164.772C269.464 164.772 268.468 165.168 267.724 165.96C266.98 166.752 266.608 167.844 266.608 169.236V179.136C266.608 179.376 266.524 179.58 266.356 179.748C266.188 179.916 265.984 180 265.744 180H262.576ZM283.241 180C283.001 180 282.797 179.916 282.629 179.748C282.461 179.58 282.377 179.376 282.377 179.136V162.144C282.377 161.904 282.461 161.7 282.629 161.532C282.797 161.364 283.001 161.28 283.241 161.28H286.229C286.493 161.28 286.697 161.364 286.841 161.532C287.009 161.7 287.093 161.904 287.093 162.144V179.136C287.093 179.376 287.009 179.58 286.841 179.748C286.697 179.916 286.493 180 286.229 180H283.241ZM283.097 158.184C282.833 158.184 282.617 158.112 282.449 157.968C282.305 157.8 282.233 157.584 282.233 157.32V154.728C282.233 154.488 282.305 154.284 282.449 154.116C282.617 153.948 282.833 153.864 283.097 153.864H286.373C286.637 153.864 286.853 153.948 287.021 154.116C287.189 154.284 287.273 154.488 287.273 154.728V157.32C287.273 157.584 287.189 157.8 287.021 157.968C286.853 158.112 286.637 158.184 286.373 158.184H283.097ZM298.169 180.36C296.441 180.36 294.917 180.036 293.597 179.388C292.301 178.74 291.281 177.804 290.537 176.58C289.817 175.332 289.421 173.832 289.349 172.08C289.325 171.72 289.313 171.252 289.313 170.676C289.313 170.076 289.325 169.584 289.349 169.2C289.421 167.448 289.817 165.96 290.537 164.736C291.281 163.488 292.301 162.54 293.597 161.892C294.917 161.244 296.441 160.92 298.169 160.92C299.705 160.92 301.013 161.136 302.093 161.568C303.173 162 304.061 162.54 304.757 163.188C305.453 163.836 305.969 164.52 306.305 165.24C306.665 165.936 306.857 166.572 306.881 167.148C306.905 167.412 306.821 167.628 306.629 167.796C306.461 167.94 306.257 168.012 306.017 168.012H302.849C302.609 168.012 302.417 167.952 302.273 167.832C302.153 167.712 302.033 167.532 301.913 167.292C301.553 166.332 301.073 165.66 300.473 165.276C299.897 164.868 299.153 164.664 298.241 164.664C297.041 164.664 296.081 165.048 295.361 165.816C294.665 166.56 294.293 167.748 294.245 169.38C294.197 170.292 294.197 171.132 294.245 171.9C294.293 173.556 294.665 174.756 295.361 175.5C296.081 176.244 297.041 176.616 298.241 176.616C299.177 176.616 299.933 176.424 300.509 176.04C301.085 175.632 301.553 174.948 301.913 173.988C302.033 173.748 302.153 173.568 302.273 173.448C302.417 173.328 302.609 173.268 302.849 173.268H306.017C306.257 173.268 306.461 173.352 306.629 173.52C306.821 173.664 306.905 173.868 306.881 174.132C306.857 174.564 306.737 175.056 306.521 175.608C306.329 176.136 306.005 176.688 305.549 177.264C305.117 177.816 304.565 178.332 303.893 178.812C303.221 179.268 302.405 179.64 301.445 179.928C300.509 180.216 299.417 180.36 298.169 180.36ZM314.271 180.36C313.023 180.36 311.895 180.12 310.887 179.64C309.879 179.136 309.075 178.476 308.475 177.66C307.899 176.82 307.611 175.884 307.611 174.852C307.611 173.172 308.283 171.84 309.627 170.856C310.995 169.848 312.795 169.176 315.027 168.84L319.959 168.12V167.364C319.959 166.356 319.707 165.576 319.203 165.024C318.699 164.472 317.835 164.196 316.611 164.196C315.747 164.196 315.039 164.376 314.487 164.736C313.959 165.072 313.563 165.528 313.299 166.104C313.107 166.416 312.831 166.572 312.471 166.572H309.627C309.363 166.572 309.159 166.5 309.015 166.356C308.895 166.212 308.835 166.02 308.835 165.78C308.859 165.396 309.015 164.928 309.303 164.376C309.591 163.824 310.047 163.296 310.671 162.792C311.295 162.264 312.099 161.82 313.083 161.46C314.067 161.1 315.255 160.92 316.647 160.92C318.159 160.92 319.431 161.112 320.463 161.496C321.519 161.856 322.359 162.348 322.983 162.972C323.607 163.596 324.063 164.328 324.351 165.168C324.639 166.008 324.783 166.896 324.783 167.832V179.136C324.783 179.376 324.699 179.58 324.531 179.748C324.363 179.916 324.159 180 323.919 180H321.003C320.739 180 320.523 179.916 320.355 179.748C320.211 179.58 320.139 179.376 320.139 179.136V177.732C319.827 178.188 319.407 178.62 318.879 179.028C318.351 179.412 317.703 179.736 316.935 180C316.191 180.24 315.303 180.36 314.271 180.36ZM315.495 176.94C316.335 176.94 317.091 176.76 317.763 176.4C318.459 176.04 318.999 175.488 319.383 174.744C319.791 173.976 319.995 173.016 319.995 171.864V171.108L316.395 171.684C314.979 171.9 313.923 172.248 313.227 172.728C312.531 173.208 312.183 173.796 312.183 174.492C312.183 175.02 312.339 175.476 312.651 175.86C312.987 176.22 313.407 176.496 313.911 176.688C314.415 176.856 314.943 176.94 315.495 176.94ZM335.886 180C334.446 180 333.234 179.748 332.25 179.244C331.266 178.74 330.534 177.996 330.054 177.012C329.574 176.004 329.334 174.756 329.334 173.268V165.096H326.49C326.25 165.096 326.046 165.012 325.878 164.844C325.71 164.676 325.626 164.472 325.626 164.232V162.144C325.626 161.904 325.71 161.7 325.878 161.532C326.046 161.364 326.25 161.28 326.49 161.28H329.334V155.304C329.334 155.064 329.406 154.86 329.55 154.692C329.718 154.524 329.934 154.44 330.198 154.44H333.114C333.354 154.44 333.558 154.524 333.726 154.692C333.894 154.86 333.978 155.064 333.978 155.304V161.28H338.478C338.718 161.28 338.922 161.364 339.09 161.532C339.258 161.7 339.342 161.904 339.342 162.144V164.232C339.342 164.472 339.258 164.676 339.09 164.844C338.922 165.012 338.718 165.096 338.478 165.096H333.978V172.908C333.978 173.892 334.146 174.66 334.482 175.212C334.842 175.764 335.454 176.04 336.318 176.04H338.802C339.042 176.04 339.246 176.124 339.414 176.292C339.582 176.46 339.666 176.664 339.666 176.904V179.136C339.666 179.376 339.582 179.58 339.414 179.748C339.246 179.916 339.042 180 338.802 180H335.886ZM341.924 180C341.684 180 341.48 179.916 341.312 179.748C341.144 179.58 341.06 179.376 341.06 179.136V162.144C341.06 161.904 341.144 161.7 341.312 161.532C341.48 161.364 341.684 161.28 341.924 161.28H344.912C345.176 161.28 345.38 161.364 345.524 161.532C345.692 161.7 345.776 161.904 345.776 162.144V179.136C345.776 179.376 345.692 179.58 345.524 179.748C345.38 179.916 345.176 180 344.912 180H341.924ZM341.78 158.184C341.516 158.184 341.3 158.112 341.132 157.968C340.988 157.8 340.916 157.584 340.916 157.32V154.728C340.916 154.488 340.988 154.284 341.132 154.116C341.3 153.948 341.516 153.864 341.78 153.864H345.056C345.32 153.864 345.536 153.948 345.704 154.116C345.872 154.284 345.956 154.488 345.956 154.728V157.32C345.956 157.584 345.872 157.8 345.704 157.968C345.536 158.112 345.32 158.184 345.056 158.184H341.78ZM357.032 180.36C355.112 180.36 353.492 180.024 352.172 179.352C350.876 178.68 349.88 177.732 349.184 176.508C348.512 175.284 348.128 173.856 348.032 172.224C348.008 171.792 347.996 171.264 347.996 170.64C347.996 170.016 348.008 169.488 348.032 169.056C348.128 167.4 348.524 165.972 349.22 164.772C349.94 163.548 350.948 162.6 352.244 161.928C353.564 161.256 355.16 160.92 357.032 160.92C358.904 160.92 360.488 161.256 361.784 161.928C363.104 162.6 364.112 163.548 364.808 164.772C365.528 165.972 365.936 167.4 366.032 169.056C366.056 169.488 366.068 170.016 366.068 170.64C366.068 171.264 366.056 171.792 366.032 172.224C365.936 173.856 365.54 175.284 364.844 176.508C364.172 177.732 363.176 178.68 361.856 179.352C360.56 180.024 358.952 180.36 357.032 180.36ZM357.032 176.796C358.304 176.796 359.288 176.4 359.984 175.608C360.68 174.792 361.064 173.604 361.136 172.044C361.16 171.684 361.172 171.216 361.172 170.64C361.172 170.064 361.16 169.596 361.136 169.236C361.064 167.7 360.68 166.524 359.984 165.708C359.288 164.892 358.304 164.484 357.032 164.484C355.76 164.484 354.776 164.892 354.08 165.708C353.384 166.524 353 167.7 352.928 169.236C352.904 169.596 352.892 170.064 352.892 170.64C352.892 171.216 352.904 171.684 352.928 172.044C353 173.604 353.384 174.792 354.08 175.608C354.776 176.4 355.76 176.796 357.032 176.796ZM369.12 180C368.88 180 368.676 179.916 368.508 179.748C368.34 179.58 368.256 179.376 368.256 179.136V162.144C368.256 161.904 368.34 161.7 368.508 161.532C368.676 161.364 368.88 161.28 369.12 161.28H372.072C372.312 161.28 372.516 161.364 372.684 161.532C372.852 161.7 372.936 161.904 372.936 162.144V163.62C373.56 162.852 374.352 162.216 375.312 161.712C376.296 161.184 377.508 160.92 378.948 160.92C380.412 160.92 381.684 161.256 382.764 161.928C383.844 162.576 384.672 163.5 385.248 164.7C385.848 165.9 386.148 167.34 386.148 169.02V179.136C386.148 179.376 386.064 179.58 385.896 179.748C385.728 179.916 385.524 180 385.284 180H382.116C381.876 180 381.672 179.916 381.504 179.748C381.336 179.58 381.252 179.376 381.252 179.136V169.236C381.252 167.844 380.904 166.752 380.208 165.96C379.536 165.168 378.552 164.772 377.256 164.772C376.008 164.772 375.012 165.168 374.268 165.96C373.524 166.752 373.152 167.844 373.152 169.236V179.136C373.152 179.376 373.068 179.58 372.9 179.748C372.732 179.916 372.528 180 372.288 180H369.12ZM388.705 182.7C388.489 182.7 388.321 182.628 388.201 182.484C388.081 182.34 388.033 182.16 388.057 181.944L389.029 175.824C389.077 175.512 389.185 175.248 389.353 175.032C389.545 174.792 389.821 174.672 390.181 174.672H393.493C393.685 174.672 393.841 174.744 393.961 174.888C394.081 175.008 394.141 175.164 394.141 175.356C394.141 175.524 394.105 175.68 394.033 175.824L391.729 181.8C391.633 182.04 391.489 182.244 391.297 182.412C391.129 182.604 390.877 182.7 390.541 182.7H388.705ZM411.104 180.36C408.44 180.36 406.328 179.592 404.768 178.056C403.208 176.52 402.368 174.336 402.248 171.504C402.224 171.264 402.212 170.964 402.212 170.604C402.212 170.22 402.224 169.92 402.248 169.704C402.344 167.904 402.752 166.344 403.472 165.024C404.216 163.704 405.236 162.696 406.532 162C407.828 161.28 409.352 160.92 411.104 160.92C413.048 160.92 414.68 161.328 416 162.144C417.32 162.936 418.316 164.052 418.988 165.492C419.66 166.908 419.996 168.552 419.996 170.424V171.18C419.996 171.42 419.912 171.624 419.744 171.792C419.576 171.96 419.36 172.044 419.096 172.044H407.144C407.144 172.044 407.144 172.08 407.144 172.152C407.144 172.224 407.144 172.284 407.144 172.332C407.168 173.172 407.324 173.952 407.612 174.672C407.924 175.368 408.368 175.932 408.944 176.364C409.544 176.796 410.252 177.012 411.068 177.012C411.74 177.012 412.304 176.916 412.76 176.724C413.216 176.508 413.588 176.268 413.876 176.004C414.164 175.74 414.368 175.524 414.488 175.356C414.704 175.068 414.872 174.9 414.992 174.852C415.136 174.78 415.34 174.744 415.604 174.744H418.7C418.94 174.744 419.132 174.816 419.276 174.96C419.444 175.104 419.516 175.284 419.492 175.5C419.468 175.884 419.264 176.352 418.88 176.904C418.52 177.456 417.992 177.996 417.296 178.524C416.6 179.052 415.724 179.496 414.668 179.856C413.636 180.192 412.448 180.36 411.104 180.36ZM407.144 169.02H415.1V168.912C415.1 167.976 414.944 167.16 414.632 166.464C414.32 165.768 413.864 165.216 413.264 164.808C412.664 164.4 411.944 164.196 411.104 164.196C410.264 164.196 409.544 164.4 408.944 164.808C408.344 165.216 407.888 165.768 407.576 166.464C407.288 167.16 407.144 167.976 407.144 168.912V169.02ZM427.453 180.36C426.205 180.36 425.077 180.12 424.069 179.64C423.061 179.136 422.257 178.476 421.657 177.66C421.081 176.82 420.793 175.884 420.793 174.852C420.793 173.172 421.465 171.84 422.809 170.856C424.177 169.848 425.977 169.176 428.209 168.84L433.141 168.12V167.364C433.141 166.356 432.889 165.576 432.385 165.024C431.881 164.472 431.017 164.196 429.793 164.196C428.929 164.196 428.221 164.376 427.669 164.736C427.141 165.072 426.745 165.528 426.481 166.104C426.289 166.416 426.013 166.572 425.653 166.572H422.809C422.545 166.572 422.341 166.5 422.197 166.356C422.077 166.212 422.017 166.02 422.017 165.78C422.041 165.396 422.197 164.928 422.485 164.376C422.773 163.824 423.229 163.296 423.853 162.792C424.477 162.264 425.281 161.82 426.265 161.46C427.249 161.1 428.437 160.92 429.829 160.92C431.341 160.92 432.613 161.112 433.645 161.496C434.701 161.856 435.541 162.348 436.165 162.972C436.789 163.596 437.245 164.328 437.533 165.168C437.821 166.008 437.965 166.896 437.965 167.832V179.136C437.965 179.376 437.881 179.58 437.713 179.748C437.545 179.916 437.341 180 437.101 180H434.185C433.921 180 433.705 179.916 433.537 179.748C433.393 179.58 433.321 179.376 433.321 179.136V177.732C433.009 178.188 432.589 178.62 432.061 179.028C431.533 179.412 430.885 179.736 430.117 180C429.373 180.24 428.485 180.36 427.453 180.36ZM428.677 176.94C429.517 176.94 430.273 176.76 430.945 176.4C431.641 176.04 432.181 175.488 432.565 174.744C432.973 173.976 433.177 173.016 433.177 171.864V171.108L429.577 171.684C428.161 171.9 427.105 172.248 426.409 172.728C425.713 173.208 425.365 173.796 425.365 174.492C425.365 175.02 425.521 175.476 425.833 175.86C426.169 176.22 426.589 176.496 427.093 176.688C427.597 176.856 428.125 176.94 428.677 176.94ZM447.876 180.36C446.436 180.36 445.2 180.192 444.168 179.856C443.16 179.52 442.332 179.1 441.684 178.596C441.036 178.092 440.556 177.588 440.244 177.084C439.932 176.58 439.764 176.16 439.74 175.824C439.716 175.56 439.788 175.356 439.956 175.212C440.148 175.044 440.352 174.96 440.568 174.96H443.412C443.508 174.96 443.592 174.972 443.664 174.996C443.736 175.02 443.832 175.092 443.952 175.212C444.264 175.476 444.588 175.752 444.924 176.04C445.284 176.328 445.704 176.58 446.184 176.796C446.664 176.988 447.264 177.084 447.984 177.084C448.92 177.084 449.7 176.904 450.324 176.544C450.972 176.16 451.296 175.62 451.296 174.924C451.296 174.42 451.152 174.012 450.864 173.7C450.6 173.388 450.096 173.112 449.352 172.872C448.608 172.608 447.552 172.332 446.184 172.044C444.84 171.732 443.724 171.336 442.836 170.856C441.948 170.376 441.288 169.776 440.856 169.056C440.424 168.336 440.208 167.496 440.208 166.536C440.208 165.6 440.484 164.712 441.036 163.872C441.612 163.008 442.452 162.3 443.556 161.748C444.684 161.196 446.076 160.92 447.732 160.92C449.028 160.92 450.156 161.088 451.116 161.424C452.076 161.736 452.868 162.132 453.492 162.612C454.14 163.092 454.632 163.584 454.968 164.088C455.304 164.568 455.484 164.988 455.508 165.348C455.532 165.612 455.46 165.828 455.292 165.996C455.124 166.14 454.932 166.212 454.716 166.212H452.052C451.932 166.212 451.824 166.188 451.728 166.14C451.632 166.092 451.536 166.032 451.44 165.96C451.176 165.72 450.888 165.468 450.576 165.204C450.264 164.94 449.88 164.712 449.424 164.52C448.992 164.304 448.416 164.196 447.696 164.196C446.784 164.196 446.088 164.4 445.608 164.808C445.128 165.192 444.888 165.684 444.888 166.284C444.888 166.692 444.996 167.052 445.212 167.364C445.452 167.652 445.92 167.928 446.616 168.192C447.312 168.456 448.368 168.732 449.784 169.02C451.392 169.308 452.664 169.74 453.6 170.316C454.56 170.868 455.232 171.516 455.616 172.26C456.024 172.98 456.228 173.784 456.228 174.672C456.228 175.752 455.904 176.724 455.256 177.588C454.632 178.452 453.696 179.136 452.448 179.64C451.224 180.12 449.7 180.36 447.876 180.36ZM460.825 186.84C460.633 186.84 460.465 186.768 460.321 186.624C460.177 186.48 460.105 186.312 460.105 186.12C460.105 186.024 460.105 185.928 460.105 185.832C460.129 185.76 460.177 185.664 460.249 185.544L463.057 178.884L456.145 162.576C456.049 162.336 456.001 162.168 456.001 162.072C456.025 161.856 456.109 161.676 456.253 161.532C456.397 161.364 456.577 161.28 456.793 161.28H459.709C459.997 161.28 460.213 161.352 460.357 161.496C460.501 161.64 460.609 161.796 460.681 161.964L465.469 173.736L470.401 161.964C470.473 161.772 470.581 161.616 470.725 161.496C470.869 161.352 471.085 161.28 471.373 161.28H474.253C474.445 161.28 474.613 161.352 474.757 161.496C474.925 161.64 475.009 161.808 475.009 162C475.009 162.144 474.961 162.336 474.865 162.576L464.677 186.156C464.581 186.348 464.461 186.504 464.317 186.624C464.173 186.768 463.957 186.84 463.669 186.84H460.825Z" fill="#2A2A2A"/>
</g>
<defs>
<clipPath id="clip0_1640_206">
<rect width="478" height="200" fill="white"/>
</clipPath>
</defs>
</svg>
