<svg width="650" height="200" viewBox="0 0 650 200" fill="none" xmlns="http://www.w3.org/2000/svg">
<path d="M133.397 115C132.297 115 131.397 114.65 130.697 113.95C130.097 113.25 129.747 112.35 129.647 111.25L120.647 66.1C119.747 61.8 118.747 58.25 117.647 55.45C116.547 52.65 115.047 50.55 113.147 49.15C111.247 47.75 108.597 47.05 105.197 47.05H99.9469C98.8469 47.05 97.9469 46.7 97.2469 46C96.5469 45.3 96.1969 44.4 96.1969 43.3V32.2C96.1969 31.2 96.5469 30.35 97.2469 29.65C97.9469 28.95 98.8469 28.6 99.9469 28.6H105.647C113.547 28.6 119.897 29.9 124.697 32.5C129.597 35 133.447 38.95 136.247 44.35C139.047 49.75 141.297 56.7 142.997 65.2L151.997 111.25C152.197 112.35 151.897 113.25 151.097 113.95C150.297 114.65 149.397 115 148.397 115H133.397ZM117.197 107.5C113.297 109.9 109.697 111.8 106.397 113.2C103.097 114.5 99.6969 115.5 96.1969 116.2C95.1969 116.3 94.3469 116.2 93.6469 115.9C92.9469 115.6 92.5969 114.95 92.5969 113.95V100.45C92.5969 98.75 93.6469 97.5 95.7469 96.7C96.4469 96.4 97.7469 95.95 99.6469 95.35C101.647 94.75 103.797 94.05 106.097 93.25C108.397 92.45 110.347 91.65 111.947 90.85C114.247 89.55 116.447 87.9 118.547 85.9C120.747 83.8 122.597 81.55 124.097 79.15C125.697 76.75 126.747 74.45 127.247 72.25L135.947 72.1C135.547 77.7 134.547 82.8 132.947 87.4C131.347 91.9 129.197 95.85 126.497 99.25C123.797 102.65 120.697 105.4 117.197 107.5ZM160.045 115C159.045 115 158.195 114.65 157.495 113.95C156.795 113.25 156.445 112.35 156.445 111.25V101.05C156.445 99.95 156.795 99.05 157.495 98.35C158.195 97.65 159.045 97.3 160.045 97.3H206.695V111.7C206.695 112.7 206.345 113.5 205.645 114.1C204.945 114.7 204.095 115 203.095 115H160.045ZM190.795 115C189.695 115 188.795 114.65 188.095 113.95C187.495 113.25 187.145 112.35 187.045 111.25L184.795 65.05C184.595 61.05 184.145 57.65 183.445 54.85C182.845 52.05 181.645 49.9 179.845 48.4C178.145 46.9 175.495 46.15 171.895 46.15H164.695C163.695 46.15 162.845 45.8 162.145 45.1C161.445 44.4 161.095 43.5 161.095 42.4V32.2C161.095 31.2 161.445 30.35 162.145 29.65C162.845 28.95 163.695 28.6 164.695 28.6H172.345C178.645 28.6 183.945 29.35 188.245 30.85C192.645 32.35 196.145 34.65 198.745 37.75C201.445 40.85 203.445 44.7 204.745 49.3C206.045 53.8 206.845 59.1 207.145 65.2L209.395 111.25C209.495 112.35 209.145 113.25 208.345 113.95C207.645 114.65 206.795 115 205.795 115H190.795ZM221.941 79.75C220.841 79.75 219.941 79.4 219.241 78.7C218.541 78 218.191 77.1 218.191 76V33.1C218.191 32 218.541 31.1 219.241 30.4C219.941 29.7 220.841 29.35 221.941 29.35H236.941C237.941 29.35 238.791 29.7 239.491 30.4C240.191 31.1 240.541 32 240.541 33.1V76C240.541 77.1 240.191 78 239.491 78.7C238.791 79.4 237.941 79.75 236.941 79.75H221.941ZM272.875 116.8C271.875 117 270.975 116.7 270.175 115.9C269.375 115.1 268.975 114.2 268.975 113.2V100.6C268.975 99.7 269.275 98.85 269.875 98.05C270.575 97.15 271.475 96.5 272.575 96.1L277.675 94C280.775 92.7 283.575 91.05 286.075 89.05C288.675 87.05 290.725 84.35 292.225 80.95C293.825 77.55 294.625 73.15 294.625 67.75C294.625 62.95 294.025 59.1 292.825 56.2C291.725 53.2 289.825 51.05 287.125 49.75C284.425 48.45 280.675 47.8 275.875 47.8H272.125C271.125 47.8 270.225 47.45 269.425 46.75C268.725 46.05 268.375 45.2 268.375 44.2V32.95C268.375 31.95 268.725 31.1 269.425 30.4C270.225 29.7 271.125 29.35 272.125 29.35H280.075C289.075 29.35 296.225 30.75 301.525 33.55C306.925 36.35 310.825 40.6 313.225 46.3C315.625 51.9 316.825 58.95 316.825 67.45C316.825 74.25 315.775 80.3 313.675 85.6C311.575 90.9 308.725 95.5 305.125 99.4C301.525 103.2 297.475 106.4 292.975 109C288.575 111.5 283.925 113.45 279.025 114.85L272.875 116.8ZM276.925 47.8H253.525C252.425 47.8 251.525 47.45 250.825 46.75C250.125 46.05 249.775 45.2 249.775 44.2V12.25C249.775 11.15 250.125 10.25 250.825 9.55C251.525 8.85 252.425 8.49999 253.525 8.49999H266.575C267.575 8.49999 268.425 8.85 269.125 9.55C269.825 10.25 270.175 11.15 270.175 12.25V29.35H277.075L276.925 47.8ZM330.809 143.65C329.709 143.65 328.809 143.3 328.109 142.6C327.409 141.9 327.059 141 327.059 139.9V65.5C327.059 64.5 327.409 63.65 328.109 62.95C328.809 62.15 329.709 61.75 330.809 61.75H344.459C345.559 61.75 346.459 62.15 347.159 62.95C347.859 63.65 348.209 64.5 348.209 65.5V139.9C348.209 141 347.859 141.9 347.159 142.6C346.459 143.3 345.559 143.65 344.459 143.65H330.809ZM364.559 116.8C363.659 117 362.759 116.7 361.859 115.9C361.059 115.1 360.659 114.2 360.659 113.2V100.6C360.659 99.7 361.009 98.85 361.709 98.05C362.409 97.15 363.259 96.5 364.259 96.1L369.359 94C372.459 92.7 375.309 91.05 377.909 89.05C380.509 87.05 382.559 84.35 384.059 80.95C385.559 77.55 386.309 73.15 386.309 67.75C386.309 62.95 385.709 59.1 384.509 56.2C383.409 53.2 381.509 51.05 378.809 49.75C376.109 48.45 372.409 47.8 367.709 47.8H330.809C329.809 47.8 328.909 47.45 328.109 46.75C327.409 46.05 327.059 45.2 327.059 44.2V32.95C327.059 31.95 327.409 31.1 328.109 30.4C328.909 29.7 329.809 29.35 330.809 29.35H371.909C380.909 29.35 388.059 30.75 393.359 33.55C398.759 36.35 402.609 40.6 404.909 46.3C407.309 51.9 408.509 58.95 408.509 67.45C408.509 74.25 407.459 80.3 405.359 85.6C403.359 90.9 400.559 95.5 396.959 99.4C393.359 103.2 389.309 106.4 384.809 109C380.309 111.5 375.609 113.45 370.709 114.85L364.559 116.8Z" fill="#2A2A2A"/>
<path d="M92.9166 168.4C92.6499 168.4 92.4232 168.307 92.2366 168.12C92.0499 167.933 91.9566 167.707 91.9566 167.44V165.12C91.9566 164.853 92.0499 164.627 92.2366 164.44C92.4232 164.253 92.6499 164.16 92.9166 164.16H102.757C105.103 164.16 107.05 164.52 108.597 165.24C110.17 165.933 111.357 167.013 112.157 168.48C112.957 169.92 113.357 171.733 113.357 173.92V186.04C113.357 186.307 113.263 186.533 113.077 186.72C112.89 186.907 112.663 187 112.397 187H109.237C108.943 187 108.703 186.92 108.517 186.76C108.357 186.573 108.277 186.333 108.277 186.04V174.12C108.277 172.307 107.81 170.907 106.877 169.92C105.97 168.907 104.517 168.4 102.517 168.4H92.9166ZM97.2366 166.04H98.5966C99.1832 166.04 99.5832 166.16 99.7966 166.4C100.037 166.64 100.13 166.92 100.077 167.24C99.8366 168.2 99.6366 169.107 99.4766 169.96C99.3432 170.787 99.2366 171.627 99.1566 172.48C99.1032 173.333 99.0766 174.28 99.0766 175.32L99.2766 186.04C99.2766 186.307 99.1832 186.533 98.9966 186.72C98.8366 186.907 98.6099 187 98.3166 187L91.3566 186.96C91.0899 186.96 90.8632 186.867 90.6766 186.68C90.4899 186.493 90.3966 186.267 90.3966 186V183.84C90.3966 183.573 90.4899 183.347 90.6766 183.16C90.8632 182.973 91.0899 182.88 91.3566 182.88L94.5166 182.92V175.44C94.5166 174.453 94.5299 173.533 94.5566 172.68C94.6099 171.827 94.7032 170.96 94.8366 170.08C94.9966 169.2 95.2232 168.24 95.5166 167.2C95.6232 166.88 95.7966 166.613 96.0366 166.4C96.2766 166.16 96.6766 166.04 97.2366 166.04ZM117.979 187C117.713 187 117.486 186.907 117.299 186.72C117.113 186.533 117.019 186.307 117.019 186.04V165.12C117.019 164.853 117.113 164.627 117.299 164.44C117.486 164.253 117.713 164.16 117.979 164.16H126.539C128.913 164.16 130.873 164.507 132.419 165.2C133.993 165.893 135.166 166.973 135.939 168.44C136.739 169.907 137.139 171.787 137.139 174.08V186.04C137.139 186.307 137.046 186.533 136.859 186.72C136.673 186.907 136.446 187 136.179 187H133.019C132.753 187 132.526 186.92 132.339 186.76C132.153 186.573 132.059 186.333 132.059 186.04V174.12C132.059 172.307 131.606 170.907 130.699 169.92C129.793 168.907 128.339 168.4 126.339 168.4H122.099V186.04C122.099 186.307 122.006 186.533 121.819 186.72C121.633 186.907 121.406 187 121.139 187H117.979ZM156.37 187C156.023 187 155.757 186.907 155.57 186.72C155.383 186.533 155.237 186.387 155.13 186.28L140.61 165.64C140.45 165.4 140.37 165.187 140.37 165C140.37 164.76 140.45 164.56 140.61 164.4C140.77 164.24 140.97 164.16 141.21 164.16H144.37C144.743 164.16 145.023 164.253 145.21 164.44C145.397 164.627 145.543 164.787 145.65 164.92L160.29 185.52C160.397 185.68 160.463 185.813 160.49 185.92C160.517 186 160.53 186.08 160.53 186.16C160.53 186.4 160.437 186.6 160.25 186.76C160.09 186.92 159.903 187 159.69 187H156.37ZM141.01 187C140.743 187 140.517 186.907 140.33 186.72C140.143 186.533 140.05 186.293 140.05 186V180.48C140.05 179.12 140.17 177.88 140.41 176.76C140.677 175.64 141.157 174.6 141.85 173.64C142.57 172.653 143.597 171.72 144.93 170.84L147.41 174.44C146.61 174.973 146.01 175.6 145.61 176.32C145.21 177.013 144.943 177.733 144.81 178.48C144.703 179.2 144.65 179.893 144.65 180.56V186C144.65 186.293 144.557 186.533 144.37 186.72C144.183 186.907 143.957 187 143.69 187H141.01ZM154.61 179.48L152.25 175.88C153.343 175.347 154.117 174.787 154.57 174.2C155.023 173.587 155.29 172.96 155.37 172.32C155.477 171.68 155.53 171.027 155.53 170.36V165.16C155.53 164.867 155.61 164.627 155.77 164.44C155.957 164.253 156.197 164.16 156.49 164.16H159.29C159.583 164.16 159.823 164.253 160.01 164.44C160.197 164.627 160.29 164.867 160.29 165.16V170.56C160.29 171.653 160.143 172.72 159.85 173.76C159.583 174.8 159.05 175.8 158.25 176.76C157.45 177.693 156.237 178.6 154.61 179.48ZM187.124 187C186.83 187 186.59 186.92 186.404 186.76C186.244 186.573 186.164 186.333 186.164 186.04V174.12C186.164 172.307 185.697 170.907 184.764 169.92C183.857 168.907 182.404 168.4 180.404 168.4H172.164C171.897 168.4 171.67 168.307 171.484 168.12C171.297 167.933 171.204 167.707 171.204 167.44V165.12C171.204 164.853 171.297 164.627 171.484 164.44C171.67 164.253 171.897 164.16 172.164 164.16H180.604C184.15 164.16 186.804 164.987 188.564 166.64C190.324 168.267 191.204 170.747 191.204 174.08V186.04C191.204 186.307 191.11 186.533 190.924 186.72C190.764 186.907 190.537 187 190.244 187H187.124ZM172.164 187C171.897 187 171.67 186.907 171.484 186.72C171.297 186.533 171.204 186.307 171.204 186.04V173.44C171.204 173.173 171.297 172.947 171.484 172.76C171.67 172.573 171.897 172.48 172.164 172.48H175.324C175.59 172.48 175.817 172.573 176.004 172.76C176.19 172.947 176.284 173.173 176.284 173.44V186.04C176.284 186.307 176.19 186.533 176.004 186.72C175.817 186.907 175.59 187 175.324 187H172.164ZM199.037 168.56V170.88C199.064 171.653 199.171 172.293 199.357 172.8C199.544 173.28 199.864 173.587 200.317 173.72L201.637 174.12C201.851 174.173 202.011 174.32 202.117 174.56C202.251 174.773 202.317 175.04 202.317 175.36L202.357 176.8C202.357 177.173 202.184 177.453 201.837 177.64C201.517 177.8 201.157 177.853 200.757 177.8L199.157 177.48C198.277 177.32 197.504 176.96 196.837 176.4C196.171 175.813 195.651 175.04 195.277 174.08C194.931 173.093 194.757 171.933 194.757 170.6V165.12C194.757 164.853 194.837 164.627 194.997 164.44C195.184 164.253 195.424 164.16 195.717 164.16H203.437C205.624 164.16 207.424 164.573 208.837 165.4C210.277 166.2 211.357 167.36 212.077 168.88C212.797 170.373 213.197 172.16 213.277 174.24C213.304 174.64 213.317 175.093 213.317 175.6C213.317 176.08 213.304 176.52 213.277 176.92C213.197 178.973 212.797 180.76 212.077 182.28C211.357 183.8 210.277 184.973 208.837 185.8C207.424 186.6 205.624 187 203.437 187H196.197C195.904 187 195.664 186.907 195.477 186.72C195.317 186.533 195.237 186.307 195.237 186.04V183.56C195.237 183.293 195.317 183.067 195.477 182.88C195.664 182.693 195.904 182.6 196.197 182.6H203.237C204.837 182.6 206.104 182.107 207.037 181.12C207.997 180.107 208.517 178.693 208.597 176.88C208.624 176.48 208.637 176.053 208.637 175.6C208.637 175.12 208.624 174.68 208.597 174.28C208.544 172.467 208.037 171.067 207.077 170.08C206.117 169.067 204.837 168.56 203.237 168.56H199.037ZM228.443 183.04C230.016 183.067 231.363 182.773 232.483 182.16C233.63 181.52 234.51 180.64 235.123 179.52C235.763 178.4 236.083 177.12 236.083 175.68V165.12C236.083 164.827 236.163 164.6 236.323 164.44C236.51 164.253 236.75 164.16 237.043 164.16H239.843C240.136 164.16 240.363 164.253 240.523 164.44C240.71 164.627 240.803 164.853 240.803 165.12V175.96C240.803 177.693 240.51 179.267 239.923 180.68C239.363 182.093 238.563 183.293 237.523 184.28C236.483 185.267 235.256 186.027 233.843 186.56C232.456 187.067 230.936 187.307 229.283 187.28H225.883C223.936 187.28 222.23 186.88 220.763 186.08C219.296 185.253 218.15 184.133 217.323 182.72C216.523 181.28 216.123 179.653 216.123 177.84V165.12C216.123 164.853 216.216 164.627 216.403 164.44C216.59 164.253 216.816 164.16 217.083 164.16H219.923C220.19 164.16 220.416 164.253 220.603 164.44C220.79 164.6 220.883 164.827 220.883 165.12L220.963 176C220.963 178.267 221.563 180.013 222.763 181.24C223.99 182.44 225.51 183.04 227.323 183.04H228.443ZM220.203 179.36L220.163 175.68C221.763 175.653 223.003 175.387 223.883 174.88C224.763 174.347 225.376 173.627 225.723 172.72C226.07 171.787 226.243 170.72 226.243 169.52V165.16C226.243 164.867 226.323 164.627 226.483 164.44C226.67 164.253 226.91 164.16 227.203 164.16H230.003C230.27 164.16 230.496 164.253 230.683 164.44C230.87 164.627 230.963 164.867 230.963 165.16V169.64C230.963 171.613 230.563 173.333 229.763 174.8C228.963 176.24 227.763 177.36 226.163 178.16C224.563 178.96 222.576 179.36 220.203 179.36ZM244.335 187C244.069 187 243.842 186.907 243.655 186.72C243.469 186.533 243.375 186.307 243.375 186.04V183.72C243.375 183.453 243.469 183.227 243.655 183.04C243.842 182.853 244.069 182.76 244.335 182.76H255.135V174.16C255.135 172.32 254.682 170.907 253.775 169.92C252.869 168.907 251.415 168.4 249.415 168.4H244.735C244.469 168.4 244.242 168.307 244.055 168.12C243.869 167.933 243.775 167.707 243.775 167.44V165.12C243.775 164.853 243.869 164.627 244.055 164.44C244.242 164.253 244.469 164.16 244.735 164.16H249.615C251.962 164.16 253.935 164.52 255.535 165.24C257.135 165.933 258.335 167.013 259.135 168.48C259.962 169.947 260.375 171.813 260.375 174.08V182.76H261.815C262.082 182.76 262.309 182.853 262.495 183.04C262.682 183.227 262.775 183.453 262.775 183.72V186.04C262.775 186.307 262.682 186.533 262.495 186.72C262.309 186.907 262.082 187 261.815 187H244.335ZM273.109 187C272.842 187 272.616 186.907 272.429 186.72C272.242 186.533 272.149 186.307 272.149 186.04V165.12C272.149 164.853 272.242 164.627 272.429 164.44C272.616 164.253 272.842 164.16 273.109 164.16H281.389C283.736 164.16 285.669 164.507 287.189 165.2C288.736 165.893 289.896 166.96 290.669 168.4C291.442 169.813 291.829 171.653 291.829 173.92V186.04C291.829 186.307 291.736 186.533 291.549 186.72C291.389 186.907 291.162 187 290.869 187H273.109ZM276.789 182.76H286.949V174.12C286.949 172.307 286.482 170.907 285.549 169.92C284.642 168.907 283.189 168.4 281.189 168.4H276.789V182.76ZM296.23 177.64C295.963 177.64 295.737 177.547 295.55 177.36C295.363 177.173 295.27 176.947 295.27 176.68V165.12C295.27 164.853 295.363 164.627 295.55 164.44C295.737 164.253 295.963 164.16 296.23 164.16H299.55C299.843 164.16 300.07 164.253 300.23 164.44C300.417 164.627 300.51 164.853 300.51 165.12V176.68C300.51 176.947 300.417 177.173 300.23 177.36C300.07 177.547 299.843 177.64 299.55 177.64H296.23ZM313.822 187C313.236 187 312.942 186.707 312.942 186.12V172.84C312.942 171.213 313.129 169.96 313.502 169.08C313.876 168.173 314.396 167.72 315.062 167.72H320.222C319.556 167.72 319.009 168.253 318.582 169.32C318.182 170.36 317.982 171.653 317.982 173.2V186.12C317.982 186.387 317.876 186.6 317.662 186.76C317.449 186.92 317.209 187 316.942 187H313.822ZM303.742 168.4C303.476 168.4 303.249 168.307 303.062 168.12C302.876 167.933 302.782 167.707 302.782 167.44V165.12C302.782 164.853 302.876 164.627 303.062 164.44C303.249 164.253 303.476 164.16 303.742 164.16H321.222C321.516 164.16 321.742 164.253 321.902 164.44C322.089 164.627 322.182 164.853 322.182 165.12V167.44C322.182 167.707 322.089 167.933 321.902 168.12C321.742 168.307 321.516 168.4 321.222 168.4H303.742ZM324.968 187C324.701 187 324.475 186.907 324.288 186.72C324.101 186.533 324.008 186.307 324.008 186.04V183.72C324.008 183.453 324.101 183.227 324.288 183.04C324.475 182.853 324.701 182.76 324.968 182.76H335.768V174.16C335.768 172.32 335.315 170.907 334.408 169.92C333.501 168.907 332.048 168.4 330.048 168.4H325.368C325.101 168.4 324.875 168.307 324.688 168.12C324.501 167.933 324.408 167.707 324.408 167.44V165.12C324.408 164.853 324.501 164.627 324.688 164.44C324.875 164.253 325.101 164.16 325.368 164.16H330.248C332.595 164.16 334.568 164.52 336.168 165.24C337.768 165.933 338.968 167.013 339.768 168.48C340.595 169.947 341.008 171.813 341.008 174.08V182.76H342.448C342.715 182.76 342.941 182.853 343.128 183.04C343.315 183.227 343.408 183.453 343.408 183.72V186.04C343.408 186.307 343.315 186.533 343.128 186.72C342.941 186.907 342.715 187 342.448 187H324.968ZM346.592 187C346.325 187 346.099 186.907 345.912 186.72C345.725 186.533 345.632 186.307 345.632 186.04V165.12C345.632 164.853 345.725 164.627 345.912 164.44C346.099 164.253 346.325 164.16 346.592 164.16H349.912C350.179 164.16 350.405 164.253 350.592 164.44C350.779 164.627 350.872 164.853 350.872 165.12V186.04C350.872 186.307 350.779 186.533 350.592 186.72C350.405 186.907 350.179 187 349.912 187H346.592ZM354.734 189.24C354.441 189.32 354.174 189.267 353.934 189.08C353.721 188.92 353.614 188.707 353.614 188.44V186.12C353.614 185.853 353.681 185.627 353.814 185.44C353.947 185.227 354.147 185.08 354.414 185L363.014 182.52C364.507 182.093 365.654 181.533 366.454 180.84C367.254 180.12 367.814 179.28 368.134 178.32C368.454 177.333 368.614 176.24 368.614 175.04V165.12C368.614 164.827 368.694 164.6 368.854 164.44C369.041 164.253 369.281 164.16 369.574 164.16H372.694C372.987 164.16 373.214 164.253 373.374 164.44C373.561 164.627 373.654 164.853 373.654 165.12V176.56C373.654 178.213 373.267 179.72 372.494 181.08C371.747 182.44 370.667 183.613 369.254 184.6C367.841 185.56 366.147 186.28 364.174 186.76L354.734 189.24ZM359.934 186.04L354.294 165.76C354.241 165.547 354.187 165.387 354.134 165.28C354.107 165.173 354.094 165.067 354.094 164.96C354.094 164.747 354.174 164.56 354.334 164.4C354.494 164.24 354.681 164.16 354.894 164.16H358.334C358.841 164.16 359.147 164.36 359.254 164.76L364.534 185.12L359.934 186.04ZM385.815 191.96C385.549 191.96 385.322 191.867 385.135 191.68C384.949 191.493 384.855 191.267 384.855 191V165.12C384.855 164.853 384.949 164.627 385.135 164.44C385.322 164.253 385.549 164.16 385.815 164.16H388.975C389.242 164.16 389.469 164.253 389.655 164.44C389.842 164.627 389.935 164.853 389.935 165.12V191C389.935 191.267 389.842 191.493 389.655 191.68C389.469 191.867 389.242 191.96 388.975 191.96H385.815ZM394.561 177.64C394.295 177.64 394.068 177.547 393.881 177.36C393.695 177.173 393.601 176.947 393.601 176.68V165.12C393.601 164.853 393.695 164.627 393.881 164.44C394.068 164.253 394.295 164.16 394.561 164.16H397.881C398.175 164.16 398.401 164.253 398.561 164.44C398.748 164.627 398.841 164.853 398.841 165.12V176.68C398.841 176.947 398.748 177.173 398.561 177.36C398.401 177.547 398.175 177.64 397.881 177.64H394.561ZM402.634 187C402.367 187 402.14 186.907 401.954 186.72C401.767 186.533 401.674 186.307 401.674 186.04V183.72C401.674 183.453 401.767 183.227 401.954 183.04C402.14 182.853 402.367 182.76 402.634 182.76H413.434V174.16C413.434 172.32 412.98 170.907 412.074 169.92C411.167 168.907 409.714 168.4 407.714 168.4H403.034C402.767 168.4 402.54 168.307 402.354 168.12C402.167 167.933 402.074 167.707 402.074 167.44V165.12C402.074 164.853 402.167 164.627 402.354 164.44C402.54 164.253 402.767 164.16 403.034 164.16H407.914C410.26 164.16 412.234 164.52 413.834 165.24C415.434 165.933 416.634 167.013 417.434 168.48C418.26 169.947 418.674 171.813 418.674 174.08V182.76H420.114C420.38 182.76 420.607 182.853 420.794 183.04C420.98 183.227 421.074 183.453 421.074 183.72V186.04C421.074 186.307 420.98 186.533 420.794 186.72C420.607 186.907 420.38 187 420.114 187H402.634ZM432.128 168.4C431.861 168.4 431.634 168.307 431.448 168.12C431.261 167.933 431.168 167.707 431.168 167.44V165.12C431.168 164.853 431.261 164.627 431.448 164.44C431.634 164.253 431.861 164.16 432.128 164.16H441.968C444.314 164.16 446.261 164.52 447.808 165.24C449.381 165.933 450.568 167.013 451.368 168.48C452.168 169.92 452.568 171.733 452.568 173.92V186.04C452.568 186.307 452.474 186.533 452.288 186.72C452.101 186.907 451.874 187 451.608 187H448.448C448.154 187 447.914 186.92 447.728 186.76C447.568 186.573 447.488 186.333 447.488 186.04V174.12C447.488 172.307 447.021 170.907 446.088 169.92C445.181 168.907 443.728 168.4 441.728 168.4H432.128ZM436.448 166.04H437.808C438.394 166.04 438.794 166.16 439.008 166.4C439.248 166.64 439.341 166.92 439.288 167.24C439.048 168.2 438.848 169.107 438.688 169.96C438.554 170.787 438.448 171.627 438.368 172.48C438.314 173.333 438.288 174.28 438.288 175.32L438.488 186.04C438.488 186.307 438.394 186.533 438.208 186.72C438.048 186.907 437.821 187 437.528 187L430.568 186.96C430.301 186.96 430.074 186.867 429.888 186.68C429.701 186.493 429.608 186.267 429.608 186V183.84C429.608 183.573 429.701 183.347 429.888 183.16C430.074 182.973 430.301 182.88 430.568 182.88L433.728 182.92V175.44C433.728 174.453 433.741 173.533 433.768 172.68C433.821 171.827 433.914 170.96 434.048 170.08C434.208 169.2 434.434 168.24 434.728 167.2C434.834 166.88 435.008 166.613 435.248 166.4C435.488 166.16 435.888 166.04 436.448 166.04ZM467.928 187C467.635 187 467.395 186.92 467.208 186.76C467.048 186.573 466.968 186.333 466.968 186.04V174.12C466.968 172.307 466.501 170.907 465.568 169.92C464.661 168.907 463.208 168.4 461.208 168.4H455.608C455.315 168.4 455.075 168.307 454.888 168.12C454.728 167.933 454.648 167.707 454.648 167.44V165.12C454.648 164.853 454.728 164.627 454.888 164.44C455.075 164.253 455.315 164.16 455.608 164.16H461.448C463.795 164.16 465.741 164.507 467.288 165.2C468.861 165.867 470.035 166.92 470.808 168.36C471.608 169.8 472.008 171.653 472.008 173.92V186.04C472.008 186.307 471.915 186.533 471.728 186.72C471.568 186.907 471.341 187 471.048 187H467.928ZM476.645 187C476.378 187 476.152 186.907 475.965 186.72C475.778 186.533 475.685 186.307 475.685 186.04V165.12C475.685 164.853 475.778 164.627 475.965 164.44C476.152 164.253 476.378 164.16 476.645 164.16H479.965C480.232 164.16 480.458 164.253 480.645 164.44C480.832 164.627 480.925 164.853 480.925 165.12V186.04C480.925 186.307 480.832 186.533 480.645 186.72C480.458 186.907 480.232 187 479.965 187H476.645ZM496.907 183.04C498.481 183.067 499.827 182.773 500.947 182.16C502.094 181.52 502.974 180.64 503.587 179.52C504.227 178.4 504.547 177.12 504.547 175.68V165.12C504.547 164.827 504.627 164.6 504.787 164.44C504.974 164.253 505.214 164.16 505.507 164.16H508.307C508.601 164.16 508.827 164.253 508.987 164.44C509.174 164.627 509.267 164.853 509.267 165.12V175.96C509.267 177.693 508.974 179.267 508.387 180.68C507.827 182.093 507.027 183.293 505.987 184.28C504.947 185.267 503.721 186.027 502.307 186.56C500.921 187.067 499.401 187.307 497.747 187.28H494.347C492.401 187.28 490.694 186.88 489.227 186.08C487.761 185.253 486.614 184.133 485.787 182.72C484.987 181.28 484.587 179.653 484.587 177.84V165.12C484.587 164.853 484.681 164.627 484.867 164.44C485.054 164.253 485.281 164.16 485.547 164.16H488.387C488.654 164.16 488.881 164.253 489.067 164.44C489.254 164.6 489.347 164.827 489.347 165.12L489.427 176C489.427 178.267 490.027 180.013 491.227 181.24C492.454 182.44 493.974 183.04 495.787 183.04H496.907ZM488.667 179.36L488.627 175.68C490.227 175.653 491.467 175.387 492.347 174.88C493.227 174.347 493.841 173.627 494.187 172.72C494.534 171.787 494.707 170.72 494.707 169.52V165.16C494.707 164.867 494.787 164.627 494.947 164.44C495.134 164.253 495.374 164.16 495.667 164.16H498.467C498.734 164.16 498.961 164.253 499.147 164.44C499.334 164.627 499.427 164.867 499.427 165.16V169.64C499.427 171.613 499.027 173.333 498.227 174.8C497.427 176.24 496.227 177.36 494.627 178.16C493.027 178.96 491.041 179.36 488.667 179.36ZM513.679 194.64C513.413 194.64 513.186 194.547 512.999 194.36C512.813 194.173 512.719 193.947 512.719 193.68V173.44C512.719 173.173 512.813 172.947 512.999 172.76C513.186 172.573 513.413 172.48 513.679 172.48H516.719C517.013 172.48 517.239 172.573 517.399 172.76C517.586 172.947 517.679 173.173 517.679 173.44V193.68C517.679 193.947 517.586 194.173 517.399 194.36C517.239 194.547 517.013 194.64 516.719 194.64H513.679ZM522.279 187.44C522.013 187.493 521.773 187.427 521.559 187.24C521.346 187.053 521.239 186.827 521.239 186.56V183.72C521.239 183.453 521.319 183.213 521.479 183C521.666 182.787 521.906 182.627 522.199 182.52L523.599 181.96C524.506 181.587 525.333 181.12 526.079 180.56C526.826 179.973 527.413 179.2 527.839 178.24C528.266 177.253 528.479 175.987 528.479 174.44C528.479 173 528.306 171.853 527.959 171C527.639 170.12 527.066 169.493 526.239 169.12C525.439 168.747 524.346 168.56 522.959 168.56H513.679C513.413 168.56 513.186 168.467 512.999 168.28C512.813 168.093 512.719 167.867 512.719 167.6V165.08C512.719 164.813 512.813 164.6 512.999 164.44C513.186 164.253 513.413 164.16 513.679 164.16H523.879C526.306 164.16 528.226 164.533 529.639 165.28C531.079 166 532.106 167.12 532.719 168.64C533.359 170.133 533.679 172.053 533.679 174.4C533.679 176.24 533.413 177.853 532.879 179.24C532.346 180.627 531.613 181.827 530.679 182.84C529.746 183.827 528.693 184.653 527.519 185.32C526.373 185.987 525.173 186.52 523.919 186.92L522.279 187.44ZM538.581 168.4C538.314 168.4 538.087 168.307 537.901 168.12C537.714 167.933 537.621 167.707 537.621 167.44V165.12C537.621 164.853 537.714 164.627 537.901 164.44C538.087 164.253 538.314 164.16 538.581 164.16H548.421C550.767 164.16 552.714 164.52 554.261 165.24C555.834 165.933 557.021 167.013 557.821 168.48C558.621 169.92 559.021 171.733 559.021 173.92V186.04C559.021 186.307 558.927 186.533 558.741 186.72C558.554 186.907 558.327 187 558.061 187H554.901C554.607 187 554.367 186.92 554.181 186.76C554.021 186.573 553.941 186.333 553.941 186.04V174.12C553.941 172.307 553.474 170.907 552.541 169.92C551.634 168.907 550.181 168.4 548.181 168.4H538.581ZM542.901 166.04H544.261C544.847 166.04 545.247 166.16 545.461 166.4C545.701 166.64 545.794 166.92 545.741 167.24C545.501 168.2 545.301 169.107 545.141 169.96C545.007 170.787 544.901 171.627 544.821 172.48C544.767 173.333 544.741 174.28 544.741 175.32L544.941 186.04C544.941 186.307 544.847 186.533 544.661 186.72C544.501 186.907 544.274 187 543.981 187L537.021 186.96C536.754 186.96 536.527 186.867 536.341 186.68C536.154 186.493 536.061 186.267 536.061 186V183.84C536.061 183.573 536.154 183.347 536.341 183.16C536.527 182.973 536.754 182.88 537.021 182.88L540.181 182.92V175.44C540.181 174.453 540.194 173.533 540.221 172.68C540.274 171.827 540.367 170.96 540.501 170.08C540.661 169.2 540.887 168.24 541.181 167.2C541.287 166.88 541.461 166.613 541.701 166.4C541.941 166.16 542.341 166.04 542.901 166.04Z" fill="#2A2A2A"/>
<path d="M438.17 15.7771C435.929 16.7652 434.092 18.8763 433.465 21.1222C432.838 23.4129 432.838 65.3205 433.51 67.6113C434.092 69.7224 436.333 72.3725 438.259 73.1361C439.38 73.6302 443.636 73.7649 457.751 73.7649C470.969 73.7649 476.839 73.9446 479.617 74.3938C491.177 76.2803 499.108 83.2873 502.11 94.292C503.006 97.5709 503.096 99.143 503.32 118.233C503.499 133.01 503.723 138.94 504.127 139.613C505.068 141.23 507.756 143.296 509.503 143.791C512.057 144.509 553.549 144.464 555.924 143.746C558.433 142.982 560.943 140.467 561.57 138.131C561.928 136.783 562.063 129.462 561.973 113.606L561.839 91.0131L560.584 89.1265C558.209 85.4883 558.613 85.5332 535.805 85.3535C516.538 85.1738 515.552 85.084 512.326 84.1408C501.707 80.9516 495.613 74.6183 492.79 63.7933C492.163 61.4577 491.984 57.505 491.76 40.7509C491.491 20.673 491.491 20.5383 490.46 18.8763C489.878 17.978 488.668 16.7652 487.772 16.1813L486.114 15.1482L463.038 15.0584C441.396 14.9236 439.873 14.9686 438.17 15.7771Z" fill="#003BFF"/>
<path d="M526.886 15.5514C520.209 17.1235 515.37 19.8634 511.113 24.5797C494.445 42.8609 506.364 72.4163 530.918 73.6291C539.925 74.0782 547.094 71.2934 553.322 65.0499C557.176 61.1421 559.147 57.953 560.626 53.0571C565.286 37.7853 556.952 21.5253 541.896 16.5395C537.326 15.0573 530.918 14.6081 526.886 15.5514Z" fill="#003BFF"/>
<path d="M456.989 85.7589C454.256 86.3428 449.058 88.4539 446.639 89.9811C443.278 92.1371 439.066 96.539 437.095 99.9527C430.463 111.541 432.435 126.049 441.844 135.437C447.58 141.142 454.122 143.882 462.142 143.971C470.656 144.061 476.973 141.501 482.978 135.527C488.668 129.867 491.177 124.298 491.581 116.392C492.074 107.364 489.34 100.177 483.202 93.9787C477.377 88.1395 470.566 85.3996 462.187 85.4894C459.812 85.5343 457.482 85.6242 456.989 85.7589Z" fill="#003BFF"/>
</svg>
