<svg width="478" height="200" viewBox="0 0 478 200" fill="none" xmlns="http://www.w3.org/2000/svg">
<g clip-path="url(#clip0_1631_228)">
<path d="M41.3969 121C40.2969 121 39.3969 120.65 38.6969 119.95C38.0969 119.25 37.7469 118.35 37.6469 117.25L28.6469 72.1C27.7469 67.8 26.7469 64.25 25.6469 61.45C24.5469 58.65 23.0469 56.55 21.1469 55.15C19.2469 53.75 16.5969 53.05 13.1969 53.05H7.94688C6.84688 53.05 5.94688 52.7 5.24688 52C4.54688 51.3 4.19688 50.4 4.19688 49.3V38.2C4.19688 37.2 4.54688 36.35 5.24688 35.65C5.94688 34.95 6.84688 34.6 7.94688 34.6H13.6469C21.5469 34.6 27.8969 35.9 32.6969 38.5C37.5969 41 41.4469 44.95 44.2469 50.35C47.0469 55.75 49.2969 62.7 50.9969 71.2L59.9969 117.25C60.1969 118.35 59.8969 119.25 59.0969 119.95C58.2969 120.65 57.3969 121 56.3969 121H41.3969ZM25.1969 113.5C21.2969 115.9 17.6969 117.8 14.3969 119.2C11.0969 120.5 7.69688 121.5 4.19688 122.2C3.19688 122.3 2.34688 122.2 1.64688 121.9C0.946875 121.6 0.596875 120.95 0.596875 119.95V106.45C0.596875 104.75 1.64688 103.5 3.74688 102.7C4.44688 102.4 5.74688 101.95 7.64688 101.35C9.64688 100.75 11.7969 100.05 14.0969 99.25C16.3969 98.45 18.3469 97.65 19.9469 96.85C22.2469 95.55 24.4469 93.9 26.5469 91.9C28.7469 89.8 30.5969 87.55 32.0969 85.15C33.6969 82.75 34.7469 80.45 35.2469 78.25L43.9469 78.1C43.5469 83.7 42.5469 88.8 40.9469 93.4C39.3469 97.9 37.1969 101.85 34.4969 105.25C31.7969 108.65 28.6969 111.4 25.1969 113.5ZM68.0453 121C67.0453 121 66.1953 120.65 65.4953 119.95C64.7953 119.25 64.4453 118.35 64.4453 117.25V107.05C64.4453 105.95 64.7953 105.05 65.4953 104.35C66.1953 103.65 67.0453 103.3 68.0453 103.3H114.695V117.7C114.695 118.7 114.345 119.5 113.645 120.1C112.945 120.7 112.095 121 111.095 121H68.0453ZM98.7953 121C97.6953 121 96.7953 120.65 96.0953 119.95C95.4953 119.25 95.1453 118.35 95.0453 117.25L92.7953 71.05C92.5953 67.05 92.1453 63.65 91.4453 60.85C90.8453 58.05 89.6453 55.9 87.8453 54.4C86.1453 52.9 83.4953 52.15 79.8953 52.15H72.6953C71.6953 52.15 70.8453 51.8 70.1453 51.1C69.4453 50.4 69.0953 49.5 69.0953 48.4V38.2C69.0953 37.2 69.4453 36.35 70.1453 35.65C70.8453 34.95 71.6953 34.6 72.6953 34.6H80.3453C86.6453 34.6 91.9453 35.35 96.2453 36.85C100.645 38.35 104.145 40.65 106.745 43.75C109.445 46.85 111.445 50.7 112.745 55.3C114.045 59.8 114.845 65.1 115.145 71.2L117.395 117.25C117.495 118.35 117.145 119.25 116.345 119.95C115.645 120.65 114.795 121 113.795 121H98.7953ZM129.941 85.75C128.841 85.75 127.941 85.4 127.241 84.7C126.541 84 126.191 83.1 126.191 82V39.1C126.191 38 126.541 37.1 127.241 36.4C127.941 35.7 128.841 35.35 129.941 35.35H144.941C145.941 35.35 146.791 35.7 147.491 36.4C148.191 37.1 148.541 38 148.541 39.1V82C148.541 83.1 148.191 84 147.491 84.7C146.791 85.4 145.941 85.75 144.941 85.75H129.941ZM180.875 122.8C179.875 123 178.975 122.7 178.175 121.9C177.375 121.1 176.975 120.2 176.975 119.2V106.6C176.975 105.7 177.275 104.85 177.875 104.05C178.575 103.15 179.475 102.5 180.575 102.1L185.675 100C188.775 98.7 191.575 97.05 194.075 95.05C196.675 93.05 198.725 90.35 200.225 86.95C201.825 83.55 202.625 79.15 202.625 73.75C202.625 68.95 202.025 65.1 200.825 62.2C199.725 59.2 197.825 57.05 195.125 55.75C192.425 54.45 188.675 53.8 183.875 53.8H180.125C179.125 53.8 178.225 53.45 177.425 52.75C176.725 52.05 176.375 51.2 176.375 50.2V38.95C176.375 37.95 176.725 37.1 177.425 36.4C178.225 35.7 179.125 35.35 180.125 35.35H188.075C197.075 35.35 204.225 36.75 209.525 39.55C214.925 42.35 218.825 46.6 221.225 52.3C223.625 57.9 224.825 64.95 224.825 73.45C224.825 80.25 223.775 86.3 221.675 91.6C219.575 96.9 216.725 101.5 213.125 105.4C209.525 109.2 205.475 112.4 200.975 115C196.575 117.5 191.925 119.45 187.025 120.85L180.875 122.8ZM184.925 53.8H161.525C160.425 53.8 159.525 53.45 158.825 52.75C158.125 52.05 157.775 51.2 157.775 50.2V18.25C157.775 17.15 158.125 16.25 158.825 15.55C159.525 14.85 160.425 14.5 161.525 14.5H174.575C175.575 14.5 176.425 14.85 177.125 15.55C177.825 16.25 178.175 17.15 178.175 18.25V35.35H185.075L184.925 53.8ZM238.809 149.65C237.709 149.65 236.809 149.3 236.109 148.6C235.409 147.9 235.059 147 235.059 145.9V71.5C235.059 70.5 235.409 69.65 236.109 68.95C236.809 68.15 237.709 67.75 238.809 67.75H252.459C253.559 67.75 254.459 68.15 255.159 68.95C255.859 69.65 256.209 70.5 256.209 71.5V145.9C256.209 147 255.859 147.9 255.159 148.6C254.459 149.3 253.559 149.65 252.459 149.65H238.809ZM272.559 122.8C271.659 123 270.759 122.7 269.859 121.9C269.059 121.1 268.659 120.2 268.659 119.2V106.6C268.659 105.7 269.009 104.85 269.709 104.05C270.409 103.15 271.259 102.5 272.259 102.1L277.359 100C280.459 98.7 283.309 97.05 285.909 95.05C288.509 93.05 290.559 90.35 292.059 86.95C293.559 83.55 294.309 79.15 294.309 73.75C294.309 68.95 293.709 65.1 292.509 62.2C291.409 59.2 289.509 57.05 286.809 55.75C284.109 54.45 280.409 53.8 275.709 53.8H238.809C237.809 53.8 236.909 53.45 236.109 52.75C235.409 52.05 235.059 51.2 235.059 50.2V38.95C235.059 37.95 235.409 37.1 236.109 36.4C236.909 35.7 237.809 35.35 238.809 35.35H279.909C288.909 35.35 296.059 36.75 301.359 39.55C306.759 42.35 310.609 46.6 312.909 52.3C315.309 57.9 316.509 64.95 316.509 73.45C316.509 80.25 315.459 86.3 313.359 91.6C311.359 96.9 308.559 101.5 304.959 105.4C301.359 109.2 297.309 112.4 292.809 115C288.309 117.5 283.609 119.45 278.709 120.85L272.559 122.8Z" fill="#2A2A2A"/>
<path d="M353.17 11.778C350.929 12.7662 349.092 14.8773 348.465 17.1232C347.838 19.4139 347.838 61.3215 348.51 63.6123C349.092 65.7234 351.333 68.3735 353.259 69.1371C354.38 69.6311 358.636 69.7659 372.751 69.7659C385.969 69.7659 391.839 69.9456 394.617 70.3947C406.177 72.2812 414.108 79.2883 417.11 90.293C418.006 93.5719 418.096 95.144 418.32 114.234C418.499 129.011 418.723 134.94 419.127 135.614C420.068 137.231 422.756 139.297 424.503 139.792C427.057 140.51 468.549 140.465 470.924 139.747C473.433 138.983 475.943 136.468 476.57 134.132C476.928 132.784 477.063 125.463 476.973 109.607L476.839 87.014L475.584 85.1275C473.209 81.4892 473.613 81.5342 450.805 81.3545C431.538 81.1748 430.552 81.085 427.326 80.1417C416.707 76.9526 410.613 70.6193 407.79 59.7943C407.163 57.4586 406.984 53.5059 406.76 36.7519C406.491 16.674 406.491 16.5392 405.46 14.8773C404.878 13.979 403.668 12.7662 402.772 12.1823L401.114 11.1492L378.038 11.0594C356.396 10.9246 354.873 10.9695 353.17 11.778Z" fill="#003BFF"/>
<path d="M441.886 11.5533C435.209 13.1254 430.37 15.8654 426.113 20.5816C409.445 38.8629 421.364 68.4183 445.918 69.631C454.925 70.0802 462.094 67.2953 468.322 61.0519C472.176 57.1441 474.147 53.955 475.626 49.059C480.286 33.7872 471.952 17.5273 456.896 12.5415C452.326 11.0592 445.918 10.6101 441.886 11.5533Z" fill="#003BFF"/>
<path d="M371.989 81.7599C369.256 82.3438 364.058 84.4549 361.639 85.9821C358.278 88.1381 354.066 92.54 352.095 95.9537C345.463 107.542 347.435 122.05 356.844 131.438C362.58 137.143 369.122 139.882 377.142 139.972C385.656 140.062 391.973 137.502 397.978 131.528C403.668 125.868 406.177 120.299 406.581 112.393C407.074 103.365 404.34 96.1782 398.202 89.9797C392.377 84.1405 385.566 81.4005 377.187 81.4904C374.812 81.5353 372.482 81.6251 371.989 81.7599Z" fill="#003BFF"/>
<path d="M7.00938 181C6.75605 181 6.54072 180.911 6.36338 180.734C6.18605 180.557 6.09738 180.341 6.09738 180.088V176.326C6.09738 176.047 6.18605 175.819 6.36338 175.642C6.54072 175.465 6.75605 175.376 7.00938 175.376H10.8094C11.0627 175.376 11.278 175.465 11.4554 175.642C11.6327 175.819 11.7214 176.047 11.7214 176.326V180.088C11.7214 180.341 11.6327 180.557 11.4554 180.734C11.278 180.911 11.0627 181 10.8094 181H7.00938ZM16.3034 163.33C16.05 163.33 15.8347 163.241 15.6574 163.064C15.48 162.887 15.3914 162.671 15.3914 162.418V160.214C15.3914 159.961 15.48 159.745 15.6574 159.568C15.8347 159.391 16.05 159.302 16.3034 159.302H25.6514C27.8807 159.302 29.73 159.644 31.1994 160.328C32.694 160.987 33.8214 162.013 34.5814 163.406C35.3414 164.774 35.7214 166.497 35.7214 168.574V180.088C35.7214 180.341 35.6327 180.557 35.4554 180.734C35.278 180.911 35.0627 181 34.8094 181H31.8074C31.5287 181 31.3007 180.924 31.1234 180.772C30.9714 180.595 30.8954 180.367 30.8954 180.088V168.764C30.8954 167.041 30.452 165.711 29.5654 164.774C28.704 163.811 27.3234 163.33 25.4234 163.33H16.3034ZM20.4074 161.088H21.6994C22.2567 161.088 22.6367 161.202 22.8394 161.43C23.0674 161.658 23.156 161.924 23.1054 162.228C22.8774 163.14 22.6874 164.001 22.5354 164.812C22.4087 165.597 22.3074 166.395 22.2314 167.206C22.1807 168.017 22.1554 168.916 22.1554 169.904L22.3454 180.088C22.3454 180.341 22.2567 180.557 22.0794 180.734C21.9274 180.911 21.712 181 21.4334 181L14.8214 180.962C14.568 180.962 14.3527 180.873 14.1754 180.696C13.998 180.519 13.9094 180.303 13.9094 180.05V177.998C13.9094 177.745 13.998 177.529 14.1754 177.352C14.3527 177.175 14.568 177.086 14.8214 177.086L17.8234 177.124V170.018C17.8234 169.081 17.836 168.207 17.8614 167.396C17.912 166.585 18.0007 165.762 18.1274 164.926C18.2794 164.09 18.4947 163.178 18.7734 162.19C18.8747 161.886 19.0394 161.633 19.2674 161.43C19.4954 161.202 19.8754 161.088 20.4074 161.088ZM39.505 172.108C39.2517 172.108 39.0364 172.019 38.859 171.842C38.6817 171.665 38.593 171.449 38.593 171.196V160.214C38.593 159.961 38.6817 159.745 38.859 159.568C39.0364 159.391 39.2517 159.302 39.505 159.302H42.659C42.9377 159.302 43.153 159.391 43.305 159.568C43.4824 159.745 43.571 159.961 43.571 160.214V171.196C43.571 171.449 43.4824 171.665 43.305 171.842C43.153 172.019 42.9377 172.108 42.659 172.108H39.505ZM58.5359 181C58.2572 181 58.0292 180.924 57.8519 180.772C57.6999 180.595 57.6239 180.367 57.6239 180.088V168.764C57.6239 167.041 57.1806 165.711 56.2939 164.774C55.4326 163.811 54.0519 163.33 52.1519 163.33H46.8319C46.5532 163.33 46.3252 163.241 46.1479 163.064C45.9959 162.887 45.9199 162.671 45.9199 162.418V160.214C45.9199 159.961 45.9959 159.745 46.1479 159.568C46.3252 159.391 46.5532 159.302 46.8319 159.302H52.3799C54.6092 159.302 56.4586 159.631 57.9279 160.29C59.4226 160.923 60.5372 161.924 61.2719 163.292C62.0319 164.66 62.4119 166.421 62.4119 168.574V180.088C62.4119 180.341 62.3232 180.557 62.1459 180.734C61.9939 180.911 61.7786 181 61.4999 181H58.5359ZM65.6009 181C65.3476 181 65.1323 180.911 64.9549 180.734C64.7776 180.557 64.6889 180.341 64.6889 180.088V177.884C64.6889 177.631 64.7776 177.415 64.9549 177.238C65.1323 177.061 65.3476 176.972 65.6009 176.972H75.8609V168.802C75.8609 167.054 75.4303 165.711 74.5689 164.774C73.7076 163.811 72.3269 163.33 70.4269 163.33H65.9809C65.7276 163.33 65.5123 163.241 65.3349 163.064C65.1576 162.887 65.0689 162.671 65.0689 162.418V160.214C65.0689 159.961 65.1576 159.745 65.3349 159.568C65.5123 159.391 65.7276 159.302 65.9809 159.302H70.6169C72.8463 159.302 74.7209 159.644 76.2409 160.328C77.7609 160.987 78.9009 162.013 79.6609 163.406C80.4463 164.799 80.8389 166.573 80.8389 168.726V176.972H82.2069C82.4603 176.972 82.6756 177.061 82.8529 177.238C83.0303 177.415 83.1189 177.631 83.1189 177.884V180.088C83.1189 180.341 83.0303 180.557 82.8529 180.734C82.6756 180.911 82.4603 181 82.2069 181H65.6009ZM84.8135 183.128C84.5348 183.204 84.2815 183.153 84.0535 182.976C83.8508 182.824 83.7495 182.621 83.7495 182.368V180.164C83.7495 179.911 83.8128 179.695 83.9395 179.518C84.0662 179.315 84.2562 179.176 84.5095 179.1L92.6795 176.744C94.0982 176.339 95.1875 175.807 95.9475 175.148C96.7075 174.464 97.2395 173.666 97.5435 172.754C97.8475 171.817 97.9995 170.778 97.9995 169.638V160.214C97.9995 159.935 98.0755 159.72 98.2275 159.568C98.4048 159.391 98.6328 159.302 98.9115 159.302H101.875C102.154 159.302 102.369 159.391 102.521 159.568C102.699 159.745 102.787 159.961 102.787 160.214V171.082C102.787 172.653 102.42 174.084 101.685 175.376C100.976 176.668 99.9502 177.783 98.6075 178.72C97.2648 179.632 95.6562 180.316 93.7815 180.772L84.8135 183.128ZM89.7535 180.088L84.3955 160.822C84.3448 160.619 84.2942 160.467 84.2435 160.366C84.2182 160.265 84.2055 160.163 84.2055 160.062C84.2055 159.859 84.2815 159.682 84.4335 159.53C84.5855 159.378 84.7628 159.302 84.9655 159.302H88.2335C88.7148 159.302 89.0062 159.492 89.1075 159.872L94.1235 179.214L89.7535 180.088ZM105.961 181C105.708 181 105.492 180.911 105.315 180.734C105.138 180.557 105.049 180.341 105.049 180.088V177.884C105.049 177.631 105.138 177.415 105.315 177.238C105.492 177.061 105.708 176.972 105.961 176.972H116.221V168.802C116.221 167.054 115.79 165.711 114.929 164.774C114.068 163.811 112.687 163.33 110.787 163.33H106.341C106.088 163.33 105.872 163.241 105.695 163.064C105.518 162.887 105.429 162.671 105.429 162.418V160.214C105.429 159.961 105.518 159.745 105.695 159.568C105.872 159.391 106.088 159.302 106.341 159.302H110.977C113.206 159.302 115.081 159.644 116.601 160.328C118.121 160.987 119.261 162.013 120.021 163.406C120.806 164.799 121.199 166.573 121.199 168.726V176.972H122.567C122.82 176.972 123.036 177.061 123.213 177.238C123.39 177.415 123.479 177.631 123.479 177.884V180.088C123.479 180.341 123.39 180.557 123.213 180.734C123.036 180.911 122.82 181 122.567 181H105.961ZM131.282 183.85C131.054 183.85 130.877 183.774 130.75 183.622C130.623 183.47 130.573 183.28 130.598 183.052L131.624 176.592C131.675 176.263 131.789 175.984 131.966 175.756C132.169 175.503 132.46 175.376 132.84 175.376H136.336C136.539 175.376 136.703 175.452 136.83 175.604C136.957 175.731 137.02 175.895 137.02 176.098C137.02 176.275 136.982 176.44 136.906 176.592L134.474 182.9C134.373 183.153 134.221 183.369 134.018 183.546C133.841 183.749 133.575 183.85 133.22 183.85H131.282ZM140.656 181C140.402 181 140.187 180.911 140.01 180.734C139.832 180.557 139.744 180.341 139.744 180.088V160.214C139.744 159.961 139.832 159.745 140.01 159.568C140.187 159.391 140.402 159.302 140.656 159.302H148.522C150.751 159.302 152.588 159.631 154.032 160.29C155.501 160.949 156.603 161.962 157.338 163.33C158.072 164.673 158.44 166.421 158.44 168.574V180.088C158.44 180.341 158.351 180.557 158.174 180.734C158.022 180.911 157.806 181 157.528 181H140.656ZM144.152 176.972H153.804V168.764C153.804 167.041 153.36 165.711 152.474 164.774C151.612 163.811 150.232 163.33 148.332 163.33H144.152V176.972ZM162.241 172.108C161.987 172.108 161.772 172.019 161.595 171.842C161.417 171.665 161.329 171.449 161.329 171.196V160.214C161.329 159.961 161.417 159.745 161.595 159.568C161.772 159.391 161.987 159.302 162.241 159.302H165.395C165.673 159.302 165.889 159.391 166.041 159.568C166.218 159.745 166.307 159.961 166.307 160.214V171.196C166.307 171.449 166.218 171.665 166.041 171.842C165.889 172.019 165.673 172.108 165.395 172.108H162.241ZM181.271 181C180.993 181 180.765 180.924 180.587 180.772C180.435 180.595 180.359 180.367 180.359 180.088V168.764C180.359 167.041 179.916 165.711 179.029 164.774C178.168 163.811 176.787 163.33 174.887 163.33H169.567C169.289 163.33 169.061 163.241 168.883 163.064C168.731 162.887 168.655 162.671 168.655 162.418V160.214C168.655 159.961 168.731 159.745 168.883 159.568C169.061 159.391 169.289 159.302 169.567 159.302H175.115C177.345 159.302 179.194 159.631 180.663 160.29C182.158 160.923 183.273 161.924 184.007 163.292C184.767 164.66 185.147 166.421 185.147 168.574V180.088C185.147 180.341 185.059 180.557 184.881 180.734C184.729 180.911 184.514 181 184.235 181H181.271ZM190.671 181C190.113 181 189.835 180.721 189.835 180.164V167.548C189.835 166.003 190.012 164.812 190.367 163.976C190.721 163.115 191.215 162.684 191.849 162.684H196.751C196.117 162.684 195.598 163.191 195.193 164.204C194.813 165.192 194.623 166.421 194.623 167.89V180.164C194.623 180.417 194.521 180.62 194.319 180.772C194.116 180.924 193.888 181 193.635 181H190.671ZM187.631 163.33C187.352 163.33 187.124 163.241 186.947 163.064C186.795 162.887 186.719 162.671 186.719 162.418V160.214C186.719 159.961 186.795 159.745 186.947 159.568C187.124 159.391 187.352 159.302 187.631 159.302H197.701C197.979 159.302 198.195 159.391 198.347 159.568C198.524 159.745 198.613 159.961 198.613 160.214V162.418C198.613 162.671 198.537 162.887 198.385 163.064C198.233 163.241 198.005 163.33 197.701 163.33H187.631ZM208.269 181C208.016 181 207.8 180.911 207.623 180.734C207.446 180.557 207.357 180.341 207.357 180.088V160.214C207.357 159.961 207.446 159.745 207.623 159.568C207.8 159.391 208.016 159.302 208.269 159.302H216.135C218.364 159.302 220.201 159.631 221.645 160.29C223.114 160.949 224.216 161.962 224.951 163.33C225.686 164.673 226.053 166.421 226.053 168.574V180.088C226.053 180.341 225.964 180.557 225.787 180.734C225.635 180.911 225.42 181 225.141 181H208.269ZM211.765 176.972H221.417V168.764C221.417 167.041 220.974 165.711 220.087 164.774C219.226 163.811 217.845 163.33 215.945 163.33H211.765V176.972ZM229.854 172.108C229.601 172.108 229.385 172.019 229.208 171.842C229.031 171.665 228.942 171.449 228.942 171.196V160.214C228.942 159.961 229.031 159.745 229.208 159.568C229.385 159.391 229.601 159.302 229.854 159.302H233.008C233.287 159.302 233.502 159.391 233.654 159.568C233.831 159.745 233.92 159.961 233.92 160.214V171.196C233.92 171.449 233.831 171.665 233.654 171.842C233.502 172.019 233.287 172.108 233.008 172.108H229.854ZM246.187 181C245.629 181 245.351 180.721 245.351 180.164V167.548C245.351 166.003 245.528 164.812 245.883 163.976C246.237 163.115 246.731 162.684 247.365 162.684H252.267C251.633 162.684 251.114 163.191 250.709 164.204C250.329 165.192 250.139 166.421 250.139 167.89V180.164C250.139 180.417 250.037 180.62 249.835 180.772C249.632 180.924 249.404 181 249.151 181H246.187ZM236.611 163.33C236.357 163.33 236.142 163.241 235.965 163.064C235.787 162.887 235.699 162.671 235.699 162.418V160.214C235.699 159.961 235.787 159.745 235.965 159.568C236.142 159.391 236.357 159.302 236.611 159.302H253.217C253.495 159.302 253.711 159.391 253.863 159.568C254.04 159.745 254.129 159.961 254.129 160.214V162.418C254.129 162.671 254.04 162.887 253.863 163.064C253.711 163.241 253.495 163.33 253.217 163.33H236.611ZM256.395 181C256.142 181 255.926 180.911 255.749 180.734C255.572 180.557 255.483 180.341 255.483 180.088V177.884C255.483 177.631 255.572 177.415 255.749 177.238C255.926 177.061 256.142 176.972 256.395 176.972H266.655V168.802C266.655 167.054 266.224 165.711 265.363 164.774C264.502 163.811 263.121 163.33 261.221 163.33H256.775C256.522 163.33 256.306 163.241 256.129 163.064C255.952 162.887 255.863 162.671 255.863 162.418V160.214C255.863 159.961 255.952 159.745 256.129 159.568C256.306 159.391 256.522 159.302 256.775 159.302H261.411C263.64 159.302 265.515 159.644 267.035 160.328C268.555 160.987 269.695 162.013 270.455 163.406C271.24 164.799 271.633 166.573 271.633 168.726V176.972H273.001C273.254 176.972 273.47 177.061 273.647 177.238C273.824 177.415 273.913 177.631 273.913 177.884V180.088C273.913 180.341 273.824 180.557 273.647 180.734C273.47 180.911 273.254 181 273.001 181H256.395ZM276.558 181C276.304 181 276.089 180.911 275.912 180.734C275.734 180.557 275.646 180.341 275.646 180.088V160.214C275.646 159.961 275.734 159.745 275.912 159.568C276.089 159.391 276.304 159.302 276.558 159.302H279.712C279.965 159.302 280.18 159.391 280.358 159.568C280.535 159.745 280.624 159.961 280.624 160.214V180.088C280.624 180.341 280.535 180.557 280.358 180.734C280.18 180.911 279.965 181 279.712 181H276.558ZM283.913 183.128C283.634 183.204 283.381 183.153 283.153 182.976C282.95 182.824 282.849 182.621 282.849 182.368V180.164C282.849 179.911 282.912 179.695 283.039 179.518C283.165 179.315 283.355 179.176 283.609 179.1L291.779 176.744C293.197 176.339 294.287 175.807 295.047 175.148C295.807 174.464 296.339 173.666 296.643 172.754C296.947 171.817 297.099 170.778 297.099 169.638V160.214C297.099 159.935 297.175 159.72 297.327 159.568C297.504 159.391 297.732 159.302 298.011 159.302H300.975C301.253 159.302 301.469 159.391 301.621 159.568C301.798 159.745 301.887 159.961 301.887 160.214V171.082C301.887 172.653 301.519 174.084 300.785 175.376C300.075 176.668 299.049 177.783 297.707 178.72C296.364 179.632 294.755 180.316 292.881 180.772L283.913 183.128ZM288.853 180.088L283.495 160.822C283.444 160.619 283.393 160.467 283.343 160.366C283.317 160.265 283.305 160.163 283.305 160.062C283.305 159.859 283.381 159.682 283.533 159.53C283.685 159.378 283.862 159.302 284.065 159.302H287.333C287.814 159.302 288.105 159.492 288.207 159.872L293.223 179.214L288.853 180.088ZM312.68 185.712C312.427 185.712 312.211 185.623 312.034 185.446C311.857 185.269 311.768 185.053 311.768 184.8V160.214C311.768 159.961 311.857 159.745 312.034 159.568C312.211 159.391 312.427 159.302 312.68 159.302H315.682C315.935 159.302 316.151 159.391 316.328 159.568C316.505 159.745 316.594 159.961 316.594 160.214V184.8C316.594 185.053 316.505 185.269 316.328 185.446C316.151 185.623 315.935 185.712 315.682 185.712H312.68ZM320.609 172.108C320.355 172.108 320.14 172.019 319.963 171.842C319.785 171.665 319.697 171.449 319.697 171.196V160.214C319.697 159.961 319.785 159.745 319.963 159.568C320.14 159.391 320.355 159.302 320.609 159.302H323.763C324.041 159.302 324.257 159.391 324.409 159.568C324.586 159.745 324.675 159.961 324.675 160.214V171.196C324.675 171.449 324.586 171.665 324.409 171.842C324.257 172.019 324.041 172.108 323.763 172.108H320.609ZM327.897 181C327.644 181 327.429 180.911 327.251 180.734C327.074 180.557 326.985 180.341 326.985 180.088V177.884C326.985 177.631 327.074 177.415 327.251 177.238C327.429 177.061 327.644 176.972 327.897 176.972H338.157V168.802C338.157 167.054 337.727 165.711 336.865 164.774C336.004 163.811 334.623 163.33 332.723 163.33H328.277C328.024 163.33 327.809 163.241 327.631 163.064C327.454 162.887 327.365 162.671 327.365 162.418V160.214C327.365 159.961 327.454 159.745 327.631 159.568C327.809 159.391 328.024 159.302 328.277 159.302H332.913C335.143 159.302 337.017 159.644 338.537 160.328C340.057 160.987 341.197 162.013 341.957 163.406C342.743 164.799 343.135 166.573 343.135 168.726V176.972H344.503C344.757 176.972 344.972 177.061 345.149 177.238C345.327 177.415 345.415 177.631 345.415 177.884V180.088C345.415 180.341 345.327 180.557 345.149 180.734C344.972 180.911 344.757 181 344.503 181H327.897ZM355.156 163.33C354.903 163.33 354.688 163.241 354.51 163.064C354.333 162.887 354.244 162.671 354.244 162.418V160.214C354.244 159.961 354.333 159.745 354.51 159.568C354.688 159.391 354.903 159.302 355.156 159.302H364.504C366.734 159.302 368.583 159.644 370.052 160.328C371.547 160.987 372.674 162.013 373.434 163.406C374.194 164.774 374.574 166.497 374.574 168.574V180.088C374.574 180.341 374.486 180.557 374.308 180.734C374.131 180.911 373.916 181 373.662 181H370.66C370.382 181 370.154 180.924 369.976 180.772C369.824 180.595 369.748 180.367 369.748 180.088V168.764C369.748 167.041 369.305 165.711 368.418 164.774C367.557 163.811 366.176 163.33 364.276 163.33H355.156ZM359.26 161.088H360.552C361.11 161.088 361.49 161.202 361.692 161.43C361.92 161.658 362.009 161.924 361.958 162.228C361.73 163.14 361.54 164.001 361.388 164.812C361.262 165.597 361.16 166.395 361.084 167.206C361.034 168.017 361.008 168.916 361.008 169.904L361.198 180.088C361.198 180.341 361.11 180.557 360.932 180.734C360.78 180.911 360.565 181 360.286 181L353.674 180.962C353.421 180.962 353.206 180.873 353.028 180.696C352.851 180.519 352.762 180.303 352.762 180.05V177.998C352.762 177.745 352.851 177.529 353.028 177.352C353.206 177.175 353.421 177.086 353.674 177.086L356.676 177.124V170.018C356.676 169.081 356.689 168.207 356.714 167.396C356.765 166.585 356.854 165.762 356.98 164.926C357.132 164.09 357.348 163.178 357.626 162.19C357.728 161.886 357.892 161.633 358.12 161.43C358.348 161.202 358.728 161.088 359.26 161.088ZM388.787 181C388.508 181 388.28 180.924 388.103 180.772C387.951 180.595 387.875 180.367 387.875 180.088V168.764C387.875 167.041 387.432 165.711 386.545 164.774C385.684 163.811 384.303 163.33 382.403 163.33H377.083C376.804 163.33 376.576 163.241 376.399 163.064C376.247 162.887 376.171 162.671 376.171 162.418V160.214C376.171 159.961 376.247 159.745 376.399 159.568C376.576 159.391 376.804 159.302 377.083 159.302H382.631C384.86 159.302 386.71 159.631 388.179 160.29C389.674 160.923 390.788 161.924 391.523 163.292C392.283 164.66 392.663 166.421 392.663 168.574V180.088C392.663 180.341 392.574 180.557 392.397 180.734C392.245 180.911 392.03 181 391.751 181H388.787ZM396.688 181C396.435 181 396.219 180.911 396.042 180.734C395.865 180.557 395.776 180.341 395.776 180.088V160.214C395.776 159.961 395.865 159.745 396.042 159.568C396.219 159.391 396.435 159.302 396.688 159.302H399.842C400.095 159.302 400.311 159.391 400.488 159.568C400.665 159.745 400.754 159.961 400.754 160.214V180.088C400.754 180.341 400.665 180.557 400.488 180.734C400.311 180.911 400.095 181 399.842 181H396.688ZM415.557 177.238C417.052 177.263 418.331 176.985 419.395 176.402C420.485 175.794 421.321 174.958 421.903 173.894C422.511 172.83 422.815 171.614 422.815 170.246V160.214C422.815 159.935 422.891 159.72 423.043 159.568C423.221 159.391 423.449 159.302 423.727 159.302H426.387C426.666 159.302 426.881 159.391 427.033 159.568C427.211 159.745 427.299 159.961 427.299 160.214V170.512C427.299 172.159 427.021 173.653 426.463 174.996C425.931 176.339 425.171 177.479 424.183 178.416C423.195 179.353 422.03 180.075 420.687 180.582C419.37 181.063 417.926 181.291 416.355 181.266H413.125C411.276 181.266 409.655 180.886 408.261 180.126C406.868 179.341 405.779 178.277 404.993 176.934C404.233 175.566 403.853 174.021 403.853 172.298V160.214C403.853 159.961 403.942 159.745 404.119 159.568C404.297 159.391 404.512 159.302 404.765 159.302H407.463C407.717 159.302 407.932 159.391 408.109 159.568C408.287 159.72 408.375 159.935 408.375 160.214L408.451 170.55C408.451 172.703 409.021 174.363 410.161 175.528C411.327 176.668 412.771 177.238 414.493 177.238H415.557ZM407.729 173.742L407.691 170.246C409.211 170.221 410.389 169.967 411.225 169.486C412.061 168.979 412.644 168.295 412.973 167.434C413.303 166.547 413.467 165.534 413.467 164.394V160.252C413.467 159.973 413.543 159.745 413.695 159.568C413.873 159.391 414.101 159.302 414.379 159.302H417.039C417.293 159.302 417.508 159.391 417.685 159.568C417.863 159.745 417.951 159.973 417.951 160.252V164.508C417.951 166.383 417.571 168.017 416.811 169.41C416.051 170.778 414.911 171.842 413.391 172.602C411.871 173.362 409.984 173.742 407.729 173.742ZM431.111 188.258C430.857 188.258 430.642 188.169 430.465 187.992C430.287 187.815 430.199 187.599 430.199 187.346V168.118C430.199 167.865 430.287 167.649 430.465 167.472C430.642 167.295 430.857 167.206 431.111 167.206H433.999C434.277 167.206 434.493 167.295 434.645 167.472C434.822 167.649 434.911 167.865 434.911 168.118V187.346C434.911 187.599 434.822 187.815 434.645 187.992C434.493 188.169 434.277 188.258 433.999 188.258H431.111ZM439.281 181.418C439.027 181.469 438.799 181.405 438.597 181.228C438.394 181.051 438.293 180.835 438.293 180.582V177.884C438.293 177.631 438.369 177.403 438.521 177.2C438.698 176.997 438.926 176.845 439.205 176.744L440.535 176.212C441.396 175.857 442.181 175.414 442.891 174.882C443.6 174.325 444.157 173.59 444.563 172.678C444.968 171.741 445.171 170.537 445.171 169.068C445.171 167.7 445.006 166.611 444.677 165.8C444.373 164.964 443.828 164.369 443.043 164.014C442.283 163.659 441.244 163.482 439.927 163.482H431.111C430.857 163.482 430.642 163.393 430.465 163.216C430.287 163.039 430.199 162.823 430.199 162.57V160.176C430.199 159.923 430.287 159.72 430.465 159.568C430.642 159.391 430.857 159.302 431.111 159.302H440.801C443.106 159.302 444.93 159.657 446.273 160.366C447.641 161.05 448.616 162.114 449.199 163.558C449.807 164.977 450.111 166.801 450.111 169.03C450.111 170.778 449.857 172.311 449.351 173.628C448.844 174.945 448.147 176.085 447.261 177.048C446.374 177.985 445.373 178.771 444.259 179.404C443.169 180.037 442.029 180.544 440.839 180.924L439.281 181.418ZM454.387 163.33C454.134 163.33 453.918 163.241 453.741 163.064C453.564 162.887 453.475 162.671 453.475 162.418V160.214C453.475 159.961 453.564 159.745 453.741 159.568C453.918 159.391 454.134 159.302 454.387 159.302H463.735C465.964 159.302 467.814 159.644 469.283 160.328C470.778 160.987 471.905 162.013 472.665 163.406C473.425 164.774 473.805 166.497 473.805 168.574V180.088C473.805 180.341 473.716 180.557 473.539 180.734C473.362 180.911 473.146 181 472.893 181H469.891C469.612 181 469.384 180.924 469.207 180.772C469.055 180.595 468.979 180.367 468.979 180.088V168.764C468.979 167.041 468.536 165.711 467.649 164.774C466.788 163.811 465.407 163.33 463.507 163.33H454.387ZM458.491 161.088H459.783C460.34 161.088 460.72 161.202 460.923 161.43C461.151 161.658 461.24 161.924 461.189 162.228C460.961 163.14 460.771 164.001 460.619 164.812C460.492 165.597 460.391 166.395 460.315 167.206C460.264 168.017 460.239 168.916 460.239 169.904L460.429 180.088C460.429 180.341 460.34 180.557 460.163 180.734C460.011 180.911 459.796 181 459.517 181L452.905 180.962C452.652 180.962 452.436 180.873 452.259 180.696C452.082 180.519 451.993 180.303 451.993 180.05V177.998C451.993 177.745 452.082 177.529 452.259 177.352C452.436 177.175 452.652 177.086 452.905 177.086L455.907 177.124V170.018C455.907 169.081 455.92 168.207 455.945 167.396C455.996 166.585 456.084 165.762 456.211 164.926C456.363 164.09 456.578 163.178 456.857 162.19C456.958 161.886 457.123 161.633 457.351 161.43C457.579 161.202 457.959 161.088 458.491 161.088Z" fill="#2A2A2A"/>
</g>
<defs>
<clipPath id="clip0_1631_228">
<rect width="478" height="200" fill="white"/>
</clipPath>
</defs>
</svg>
